<?xml version="1.0" encoding="utf-8"?>
<!-- Generator: Adobe Illustrator 19.0.0, SVG Export Plug-In . SVG Version: 6.00 Build 0)  -->
<svg version="1.1" id="OBJECTS" xmlns="http://www.w3.org/2000/svg" xmlns:xlink="http://www.w3.org/1999/xlink" x="0px" y="0px"
	 viewBox="0 0 60.6 30.1" style="enable-background:new 0 0 60.6 30.1;" xml:space="preserve">
<style type="text/css">
	.st0{fill:#E8AF6A;}
</style>
<g id="XMLID_85_">
	<path id="XMLID_86_" class="st0" d="M18.1,27.3C11.9,29.6,4.5,29.8-1,25.6c7.6,5.9,16,0.1,21.4-5.9c2.9-3.2,5.4-6.8,8.3-10
		c4.9-5.5,11.9-10,19.1-9c5,0.7,9.6,4.1,11.6,8.8c2,4.7,1.4,10.3-1.6,14.4s-8.1,6.5-13.2,6.1c-3.9-0.3-7.8-2.4-9.3-6
		c-1.5-3.6,0.3-8.5,4.1-9.4c2-0.5,4.2,0.2,5.4,1.9c1.2,1.7,0.9,4.2-0.7,5.5s-4.3,0.7-5.1-1.2c0.2,0.4-0.1,1.7,0,2.3
		c0.2,0.9,0.5,1.7,1,2.4c4,5.8,11.4,2.3,14.9-2c2.3-2.9,3.5-6.8,2.7-10.4c-0.8-3.6-3.6-6.8-7.3-7.6C47,4.7,43.5,6,40.8,8
		c-2.7,2.1-4.9,4.8-7.1,7.4C29.4,20.4,24.3,25,18.1,27.3z"/>
	<path id="XMLID_92_" class="st0" d="M11.9,27c2.5-1.3,4.7-3.5,5.6-6.2c0.9-2.7,0.5-5.9-1.3-8.1c-1.8-2.2-5.1-3.2-7.7-2.1
		c-1.5,0.6-2.8,2-3.1,3.7c-0.3,1.6,0.6,3.5,2.1,4.1c1.5,0.6,3.6-0.3,4-1.9c0.4-1.6-1.3-3.4-2.9-3c2.4-1.1,5.5,0.3,6.7,2.6
		s0.7,5.4-1,7.5C11.8,26.7,8,28.2,4.1,28C6.8,28.7,9.4,28.3,11.9,27z"/>
</g>
</svg>
