<?xml version="1.0" encoding="utf-8"?>
<!-- Generator: Adobe Illustrator 19.0.0, SVG Export Plug-In . SVG Version: 6.00 Build 0)  -->
<svg version="1.1" id="object" xmlns="http://www.w3.org/2000/svg" xmlns:xlink="http://www.w3.org/1999/xlink" x="0px" y="0px"
	 viewBox="-127 229 705 104" style="enable-background:new -127 229 705 104;" xml:space="preserve">
<style type="text/css">
	.st0{fill:#EBB97C;}
</style>
<g>
	<circle class="st0" cx="230.6" cy="242.7" r="3.4"/>
</g>
<g>
	<g>
		<g>
			<path class="st0" d="M390.8,262.6c0,0-0.3-0.1-0.8-0.3c-0.3-0.1-0.6-0.2-1-0.3c-0.2-0.1-0.4-0.1-0.7-0.1c-0.2,0-0.5-0.1-0.8-0.1
				c-2.2-0.3-5.4-0.5-9.3-0.1c-3.9,0.4-8.5,1.2-13.5,2.5c-2.5,0.6-5.1,1.4-7.8,2.3c-1.3,0.4-2.7,0.9-4,1.4c-1.4,0.5-2.7,1.1-4.1,1.6
				c-2.7,1.1-5.4,2.3-7.9,3.3c-2.6,1-5,1.9-7.4,2.7c-4.8,1.5-9.3,2.4-13.1,2.6c-0.9,0-1.8,0.1-2.7,0c-0.8,0-1.6-0.1-2.4-0.2
				c-1.5-0.2-2.7-0.6-3.7-1s-1.7-0.9-2.2-1.2c-0.2-0.2-0.4-0.3-0.5-0.4c-0.1-0.1-0.2-0.1-0.2-0.1s0.1,0.1,0.2,0.2s0.2,0.3,0.5,0.5
				c0.4,0.4,1.1,0.9,2,1.5c1,0.6,2.2,1.1,3.7,1.5c0.8,0.2,1.6,0.4,2.5,0.5s1.8,0.2,2.8,0.3c4,0.2,8.7-0.4,13.7-1.6
				c2.5-0.6,5.1-1.5,7.8-2.4c2.6-1,5.3-2.1,8-3.2c1.4-0.6,2.7-1.1,4-1.6s2.6-1,3.9-1.5c2.6-0.9,5.1-1.8,7.5-2.6
				c4.8-1.5,9.3-2.7,13-3.4c3.8-0.7,6.9-1,9-0.9c0.3,0,0.5,0,0.8,0c0.2,0,0.5,0,0.7,0c0.4,0,0.8,0.1,1,0.1
				C390.5,262.5,390.8,262.6,390.8,262.6z"/>
		</g>
		<g>
			<path class="st0" d="M402.8,279.1c0.2,0.3,0.5,0.5,0.9,0.5c0.2,0,0.5,0,0.8,0s0.6-0.1,1-0.2c0.3-0.1,0.7-0.3,1.1-0.5
				c0.4-0.2,0.8-0.5,1.2-0.9c0.8-0.7,1.5-1.7,1.9-3c0.2-0.6,0.3-1.5,0.3-2.5c-0.1-1-0.4-2.1-0.9-3.1c-1-2-2.7-3.6-4.4-4.7
				c-0.9-0.6-1.7-1-2.6-1.4c-0.8-0.4-1.6-0.6-2.3-0.7c-1.3-0.3-2.2-0.3-2.2-0.1c0,0.1,0.7,0.5,1.8,1.3c0.5,0.4,1.1,0.8,1.7,1.3
				c0.6,0.5,1.2,1.1,1.8,1.8s1.1,1.4,1.5,2.1c0.4,0.7,0.7,1.4,0.9,2.1c0.2,0.6,0.2,1.2,0.2,1.6s-0.1,0.8-0.2,1
				c-0.2,0.5-0.4,1-0.7,1.6c-0.1,0.3-0.3,0.5-0.5,0.8c-0.2,0.3-0.3,0.5-0.5,0.8c-0.2,0.2-0.3,0.5-0.4,0.7c-0.1,0.2-0.2,0.4-0.3,0.6
				C402.6,278.4,402.6,278.8,402.8,279.1z"/>
		</g>
		<g>
			<path class="st0" d="M416.9,263.7c-0.1-0.3-0.3-0.6-0.5-0.8c-0.2-0.2-0.5-0.4-0.8-0.6c-0.5-0.3-1.1-0.6-1.8-0.7
				c-0.3,0-0.9,0-1.7-0.1c-0.7-0.1-1.6-0.2-2.4-0.5c-0.2-0.1-0.4-0.1-0.6-0.2c-0.2-0.1-0.4-0.1-0.6-0.2c-0.4-0.2-0.7-0.3-1-0.4
				c-0.3-0.1-0.6-0.3-0.7-0.3c-0.2-0.1-0.3-0.1-0.4-0.1c-0.1,0-0.1,0.2,0,0.4c0,0.2,0.1,0.5,0.3,0.8c0.1,0.3,0.4,0.7,0.6,1.1
				c0.1,0.2,0.3,0.4,0.4,0.6c0.2,0.2,0.3,0.4,0.5,0.6c0.7,0.8,1.7,1.6,2.6,2.1c0.9,0.5,1.9,0.8,2.5,0.9c1.2,0.2,2.3-0.1,3-0.7
				c0.3-0.3,0.6-0.6,0.7-0.9C417,264.3,417,264,416.9,263.7z"/>
		</g>
		<path class="st0" d="M435.2,271.2c0,0.4-0.1,0.7-0.1,1.1c0,0.4-0.1,0.7-0.1,1.1c-0.5,2.9-1.6,5.7-3.2,8c-1.6,2.3-3.7,4.1-5.8,5.4
			c-2.2,1.3-4.4,2.2-6.6,2.8c-2.2,0.6-4.4,0.9-6.4,1.1c-2,0.1-4,0.1-5.7-0.1c-0.4,0-0.9-0.1-1.3-0.1c-0.4-0.1-0.8-0.1-1.3-0.2
			c-0.4-0.1-0.8-0.1-1.2-0.2s-0.8-0.1-1.1-0.2c-0.4-0.1-0.7-0.2-1.1-0.3c-0.2,0-0.4-0.1-0.5-0.1c-0.2-0.1-0.3-0.1-0.5-0.1
			c-0.3-0.1-0.7-0.2-1-0.3s-0.6-0.2-0.9-0.3c-2.4-0.8-4.1-1.7-5.2-2.3c-0.3-0.1-0.5-0.3-0.7-0.4s-0.4-0.2-0.5-0.3
			c-0.3-0.2-0.4-0.3-0.4-0.3s0.2,0.1,0.5,0.2c0.1,0.1,0.3,0.2,0.6,0.3c0.2,0.1,0.5,0.3,0.8,0.4c1.2,0.6,3,1.3,5.3,1.9
			c0.3,0.1,0.6,0.2,0.9,0.2c0.3,0.1,0.6,0.1,1,0.2c0.2,0,0.3,0.1,0.5,0.1s0.3,0.1,0.5,0.1c0.4,0.1,0.7,0.1,1.1,0.2
			c0.4,0.1,0.7,0.1,1.1,0.2c0.4,0.1,0.8,0.1,1.2,0.1s0.8,0.1,1.2,0.1s0.8,0,1.3,0c1.7,0,3.6,0,5.5-0.3c1.9-0.3,4-0.7,6-1.4
			c2-0.7,4.1-1.6,6-2.9c1.9-1.3,3.6-3,4.9-5c1.3-2,2.2-4.4,2.5-7c0-0.3,0.1-0.6,0.1-1c0-0.3,0.1-0.7,0.1-1c0-0.6,0-1.3-0.1-1.9
			c0-0.6-0.2-1.3-0.3-1.9c-0.1-0.3-0.2-0.6-0.3-0.9c-0.1-0.3-0.2-0.6-0.3-0.9c-0.2-0.6-0.5-1.2-0.8-1.8c-0.2-0.3-0.3-0.6-0.5-0.9
			l-0.1-0.2l-0.1-0.2l-0.3-0.4c-0.8-1.1-1.7-2.2-2.8-3.1c-2.1-1.9-4.7-3.5-7.4-4.8c-2.8-1.3-5.7-2.3-8.8-3c-1.5-0.4-3.1-0.7-4.7-0.8
			c-1.6-0.2-3.2-0.3-4.8-0.3c-0.4,0-0.8,0-1.2,0s-0.8,0-1.2,0s-0.8,0.1-1.2,0.1c-0.4,0.1-0.8,0.1-1.2,0.2c-1.6,0.2-3.2,0.4-4.8,0.7
			c-0.8,0.1-1.6,0.3-2.4,0.4c-0.8,0.1-1.6,0.3-2.4,0.5c-0.8,0.2-1.6,0.3-2.3,0.5c-0.8,0.2-1.5,0.4-2.3,0.6
			c-6.1,1.5-11.9,3.4-17.4,5.3c-5.5,1.9-10.7,3.8-15.6,5.6c-4.9,1.8-9.5,3.4-13.8,4.7c-2.1,0.6-4.2,1.3-6.1,1.8s-3.8,1-5.5,1.3
			c-3.5,0.7-6.6,1-9.1,0.8c-1.3-0.1-2.4-0.3-3.3-0.5c-0.4-0.1-0.7-0.2-1-0.3c-0.1,0-0.2,0-0.3-0.1c-0.1,0-0.3-0.1-0.4-0.1
			s-0.3-0.1-0.4-0.1s-0.3-0.1-0.4-0.1c-0.3-0.1-0.5-0.2-0.7-0.3c-0.5-0.2-1-0.5-1.4-0.7c-0.4-0.3-0.9-0.6-1.3-0.9
			c-0.4-0.3-0.8-0.6-1.1-1c-1.4-1.4-2.3-3.1-2.6-4.7c-0.2-0.8-0.2-1.6-0.2-2.4c0-0.8,0.2-1.4,0.4-2.1c0.2-0.6,0.4-1.2,0.7-1.8
			c0.1-0.1,0.2-0.3,0.2-0.4s0.1-0.1,0.1-0.2l0.1-0.2c0.1-0.1,0.2-0.3,0.3-0.4l0.1-0.2l0.2-0.2c0.4-0.5,0.9-0.9,1.3-1.3
			c0.5-0.4,1-0.7,1.5-1c1-0.6,2.1-1,3.2-1.4c0.5-0.2,1.1-0.3,1.6-0.4c0.3,0,0.6-0.1,0.8-0.1c0.1,0,0.3,0,0.4,0s0.3,0,0.4,0
			s0.3,0,0.4,0s0.3,0,0.4,0h0.2h0.2c0.1,0,0.3,0,0.4,0s0.3,0,0.4,0h0.2h0.2c0.1,0,0.3,0,0.4,0.1c0.1,0,0.3,0.1,0.4,0.1
			s0.3,0.1,0.4,0.1s0.2,0.1,0.4,0.1c0.2,0.1,0.5,0.2,0.7,0.3c0.5,0.2,0.9,0.5,1.3,0.7c0.1,0.1,0.2,0.1,0.3,0.2l0.1,0.1l0.1,0.1
			c0.1,0.1,0.2,0.2,0.3,0.2c0.1,0.1,0.2,0.2,0.3,0.3l0.1,0.1l0.1,0.1c0.1,0.1,0.2,0.2,0.2,0.3c0.1,0.1,0.1,0.2,0.2,0.3l0.1,0.1
			c0,0,0.1,0.1,0.1,0.2c0.1,0.1,0.1,0.2,0.2,0.3c0.1,0.1,0.1,0.2,0.2,0.3l0.1,0.2l0.1,0.2c0,0.1,0.1,0.2,0.1,0.3s0.1,0.2,0.1,0.3
			s0,0.1,0,0.2v0.2c0,0.1,0,0.2,0.1,0.3c0,0.1,0,0.2,0,0.3s0,0.1,0,0.2v0.2c0,0.1,0,0.2,0,0.3s0,0.2,0,0.3v0.2c0,0.1,0,0.1,0,0.2
			c0,0.1,0,0.2,0,0.3s0,0.2,0,0.3c0,0.2-0.1,0.4-0.1,0.6c-0.2,0.7-0.5,1.4-1,1.9c-0.4,0.5-0.9,1-1.4,1.3c-0.5,0.3-1,0.5-1.4,0.6
			c-0.1,0-0.1,0-0.2,0s-0.1,0-0.2,0s-0.2,0-0.3,0.1c-0.2,0-0.4,0-0.6,0.1c-0.2,0-0.3,0-0.5,0c-0.1,0-0.1,0-0.2,0
			c-1,0.3-2-0.2-2.5-1.1c-0.5-1.1-0.1-2.3,1-2.8s2.3-0.1,2.8,1c0.4,0.8,0.2,1.8-0.4,2.4c0.1,0,0.1,0,0.2,0s0.2-0.1,0.3-0.1h0.1
			c0,0,0.1,0,0.1-0.1c0.4-0.1,0.8-0.4,1.2-0.7c0.4-0.3,0.8-0.7,1.1-1.2c0.3-0.5,0.6-1,0.7-1.7c0-0.2,0.1-0.3,0.1-0.5
			c0-0.1,0-0.2,0-0.2c0-0.1,0-0.2,0-0.2v-0.1v-0.1c0-0.1,0-0.2,0-0.3s0-0.2,0-0.3v-0.1v-0.1c0-0.1,0-0.2,0-0.3s0-0.2-0.1-0.3v-0.1
			V257c0-0.1-0.1-0.2-0.1-0.3c0-0.1-0.1-0.2-0.1-0.3l-0.1-0.1l-0.1-0.1c0-0.1-0.1-0.2-0.1-0.2c-0.1-0.1-0.1-0.2-0.2-0.2l-0.1-0.1
			l-0.1-0.1c-0.1-0.1-0.1-0.2-0.2-0.2c-0.1-0.1-0.1-0.1-0.2-0.2l-0.1-0.1l-0.1-0.1c-0.1-0.1-0.1-0.1-0.2-0.2
			c-0.1-0.1-0.2-0.1-0.2-0.2l-0.1-0.1l-0.1-0.1c-0.1-0.1-0.2-0.1-0.3-0.2c-1.4-0.9-3.2-1.3-5.2-1.2c-0.1,0-0.2,0-0.4,0
			c-0.1,0-0.2,0-0.4,0c-0.2,0-0.5,0.1-0.7,0.1c-0.5,0.1-1,0.2-1.5,0.3c-1,0.3-1.9,0.7-2.8,1.2c-0.4,0.3-0.9,0.6-1.3,0.9
			s-0.8,0.7-1.1,1.1l-0.1,0.1l-0.1,0.2c-0.1,0.1-0.2,0.2-0.2,0.3l-0.1,0.2c0,0.1-0.1,0.1-0.1,0.2c-0.1,0.1-0.1,0.2-0.2,0.4
			c-0.2,0.5-0.5,1-0.6,1.5c-0.2,0.5-0.3,1.1-0.3,1.7s0,1.3,0.1,1.9c0.1,0.7,0.4,1.4,0.8,2c0.1,0.2,0.2,0.3,0.3,0.5
			c0.1,0.2,0.2,0.3,0.3,0.5c0.2,0.3,0.5,0.6,0.8,0.9c0.3,0.3,0.6,0.6,0.9,0.9c0.3,0.3,0.7,0.5,1.1,0.8c0.4,0.2,0.8,0.4,1.2,0.6
			c0.2,0.1,0.4,0.2,0.6,0.3c0.1,0,0.2,0.1,0.3,0.1c0.1,0,0.2,0.1,0.3,0.1c0.1,0,0.2,0.1,0.3,0.1c0.1,0,0.2,0.1,0.4,0.1
			c0.2,0.1,0.5,0.1,0.7,0.2c0.1,0,0.2,0.1,0.4,0.1c0.1,0,0.3,0,0.4,0.1c0.1,0,0.3,0,0.4,0.1c0.1,0,0.3,0,0.4,0.1
			c0.3,0,0.5,0.1,0.8,0.1s0.5,0,0.8,0.1c0.3,0,0.5,0,0.8,0c0.1,0,0.3,0,0.4,0s0.3,0,0.4,0s0.3,0,0.4,0s0.3,0,0.4,0
			c0.3,0,0.5-0.1,0.8-0.1c0.6-0.1,1.3-0.1,1.9-0.2s1.1-0.2,1.7-0.2c1-0.1,2-0.2,3-0.3c0.4-0.1,2.3-0.3,2.3-0.3l0,0
			c0.7-0.2,1.4-0.5,2.1-0.7c1.9-0.6,3.9-1.4,5.9-2.1c4.1-1.5,8.6-3.3,13.5-5.3c4.8-2,10-4.1,15.5-6.2c5.5-2.1,11.4-4.1,17.6-5.7
			c0.8-0.2,1.6-0.4,2.4-0.6s1.6-0.4,2.4-0.5c0.8-0.2,1.6-0.4,2.4-0.5c0.8-0.1,1.6-0.3,2.5-0.4c1.6-0.3,3.3-0.5,5-0.7
			c0.4-0.1,0.8-0.1,1.3-0.2c0.4,0,0.9-0.1,1.3-0.1c0.4,0,0.9,0,1.3-0.1c0.4,0,0.9,0,1.3,0c3.5,0,7,0.5,10.3,1.3s6.5,1.9,9.5,3.4
			s5.8,3.3,8.2,5.5c1.2,1.1,2.3,2.4,3.2,3.7l0.3,0.5l0.2,0.3l0.2,0.3c0.2,0.4,0.4,0.7,0.6,1.1c0.3,0.7,0.7,1.5,1,2.2
			c0.1,0.4,0.3,0.7,0.4,1.1c0.1,0.4,0.2,0.8,0.3,1.2c0.1,0.8,0.3,1.6,0.3,2.3C435.3,269.7,435.2,270.5,435.2,271.2z"/>
	</g>
	<path class="st0" d="M229.8,266.2l-3-6.4l0,0c1.2-1.7,3.1-10.1,3.1-10.1c0-0.1,0.1-0.1,0.1,0c0.4,1.8,1.8,8.7,2.9,10.1l0,0
		L229.8,266.2z"/>
	<g>
		<g>
			<g>
				<path class="st0" d="M252.9,312.1c0.5,0.2,0.8,0.6,1,1.2c0.2,0.6,0.1,1.5-0.3,2.4c-0.4,0.9-1.3,2-2.6,2.7
					c-1.3,0.7-2.9,1.1-4.4,1c-0.8,0-1.8-0.3-2.8-0.7c-1.1-0.4-2.1-1.1-3.1-1.9c-1-0.8-1.9-1.9-2.5-3c-0.7-1.1-1.2-2.3-1.6-3.5
					c-0.3-1.2-0.5-2.3-0.6-3.4c0-0.5,0-1,0-1.5s0.1-0.9,0.1-1.3c0.1-0.4,0.1-0.7,0.2-1c0.1-0.3,0.2-0.6,0.2-0.8
					c0.2-0.4,0.3-0.7,0.4-0.7s0.2,0.2,0.4,0.6c0.2,0.4,0.4,1,0.6,1.6c0.1,0.3,0.3,0.7,0.4,1.1c0.2,0.4,0.4,0.7,0.6,1.1
					c0.4,0.8,0.9,1.5,1.5,2.3c0.6,0.7,1.2,1.4,1.9,1.9c0.7,0.5,1.4,0.9,2,1.2c0.6,0.3,1.2,0.4,1.7,0.5c0.1,0,0.2,0,0.3,0
					c0.1,0,0.2,0,0.3,0c0.1,0,0.2,0,0.3,0c0.1,0,0.1,0,0.2,0c0.5,0,1,0.1,1.4,0.1s0.9,0,1.4,0C250.8,312.1,252,311.7,252.9,312.1z"
					/>
			</g>
			<path class="st0" d="M237.1,320.5c-2.8-6.4-3.6-15.4-3.7-16.6c0-0.1,0-0.1-0.1-0.1l-2.8-3.1c-0.4-0.4-1-0.4-1.4,0l-2.8,3.1
				c-0.1,0-0.1,0.1-0.1,0.1c-0.1,1.2-0.7,9.5-3.7,16.6c0,0.1,5.7,10.2,7,12.4c0.1,0.2,0.4,0.2,0.5,0
				C231.5,330.8,237.2,320.6,237.1,320.5z"/>
			<g>
				<path class="st0" d="M206.6,312.1c-0.5,0.2-0.8,0.6-1,1.2c-0.2,0.6-0.1,1.5,0.3,2.4c0.4,0.9,1.3,2,2.6,2.7
					c1.3,0.7,2.9,1.1,4.4,1c0.8,0,1.8-0.3,2.8-0.7c1.1-0.4,2.1-1.1,3.1-1.9c1-0.8,1.9-1.9,2.5-3c0.7-1.1,1.2-2.3,1.6-3.5
					c0.3-1.2,0.5-2.3,0.6-3.4c0-0.5,0-1,0-1.5s-0.1-0.9-0.1-1.3c-0.1-0.4-0.1-0.7-0.2-1c-0.1-0.3-0.2-0.6-0.2-0.8
					c-0.2-0.4-0.3-0.7-0.4-0.7s-0.2,0.2-0.4,0.6c-0.2,0.4-0.4,1-0.6,1.6c-0.1,0.3-0.3,0.7-0.4,1.1c-0.2,0.4-0.4,0.7-0.6,1.1
					c-0.4,0.8-0.9,1.5-1.5,2.3c-0.6,0.7-1.2,1.4-1.9,1.9c-0.7,0.5-1.4,0.9-2,1.2c-0.6,0.3-1.2,0.4-1.7,0.5c-0.1,0-0.2,0-0.3,0
					c-0.1,0-0.2,0-0.3,0c-0.1,0-0.2,0-0.3,0c-0.1,0-0.1,0-0.2,0c-0.5,0-0.9,0.1-1.4,0.1c-0.4,0-0.9,0-1.4,0
					C208.6,312.1,207.5,311.7,206.6,312.1z"/>
			</g>
		</g>
		<path class="st0" d="M229.9,299.6l-3.5-3.3l0,0c0.6-0.9,3.5-5.7,3.5-5.7l0,0l0,0c0,0,2.7,4.9,3.4,5.7l0,0L229.9,299.6z"/>
		<path class="st0" d="M206.4,302.6c-1.6-0.4-3.2-0.8-4.8-1.4c-1.6-0.6-3.3-1.2-5-1.9c-3.4-1.4-6.8-3-10.4-4.6
			c-1.8-0.8-3.6-1.6-5.4-2.5c-1.8-0.8-3.7-1.7-5.5-2.5c-1.9-0.8-3.8-1.7-5.7-2.5c-1.9-0.8-3.9-1.6-5.8-2.3c-1-0.4-2-0.7-3-1
			c-0.5-0.2-1-0.3-1.5-0.5c-0.5-0.2-1-0.3-1.5-0.5c-1-0.3-2-0.6-3.1-0.8c-0.5-0.1-1-0.2-1.5-0.4c-0.5-0.1-1-0.2-1.6-0.3
			c-0.3,0-0.5-0.1-0.8-0.1l-0.8-0.1c-0.5-0.1-1-0.2-1.6-0.2c-0.5-0.1-1-0.1-1.5-0.2c-0.5-0.1-1-0.1-1.5-0.2s-1-0.1-1.5-0.2
			c-0.5,0-1-0.1-1.5-0.1l-0.8-0.1h-0.8c-0.5,0-1-0.1-1.5-0.1c-2.1-0.1-4.1,0-6.1,0.2c-0.3,0-0.5,0.1-0.8,0.1s-0.5,0.1-0.8,0.1
			c-0.5,0.1-1,0.2-1.5,0.3c-0.5,0.1-1,0.2-1.5,0.3c-0.2,0.1-0.5,0.1-0.7,0.2c-0.2,0.1-0.5,0.1-0.7,0.2s-0.5,0.1-0.7,0.2
			c-0.2,0.1-0.5,0.2-0.7,0.3c-0.5,0.2-0.9,0.3-1.4,0.5c-0.4,0.2-0.9,0.4-1.3,0.6c-0.4,0.2-0.9,0.4-1.3,0.6c-0.2,0.1-0.4,0.2-0.6,0.3
			c-0.2,0.1-0.4,0.2-0.6,0.3c-0.2,0.1-0.4,0.2-0.6,0.3c-0.2,0.1-0.4,0.2-0.6,0.4c-0.4,0.2-0.8,0.5-1.2,0.7c-0.2,0.1-0.4,0.3-0.6,0.4
			c-0.2,0.1-0.4,0.3-0.6,0.4c-0.2,0.1-0.4,0.3-0.6,0.4c-0.2,0.1-0.4,0.3-0.5,0.5c-0.4,0.3-0.7,0.6-1,0.9c-0.7,0.6-1.3,1.3-1.8,2
			c-0.6,0.7-1.1,1.4-1.5,2.2s-0.9,1.5-1.2,2.3c-1.4,3.1-1.9,6.5-1.5,9.4c0.2,1.5,0.6,2.9,1.1,4.1c0.5,1.2,1.1,2.3,1.8,3.2
			s1.4,1.8,2.2,2.5c0.2,0.2,0.4,0.4,0.6,0.6c0.1,0.1,0.2,0.2,0.3,0.3l0.3,0.3c0.2,0.2,0.5,0.3,0.7,0.5l0.3,0.2l0.4,0.2
			c0.9,0.6,1.9,1,2.9,1.4s2,0.6,3,0.8c2,0.4,4,0.5,6,0.4c1-0.1,1.9-0.2,2.9-0.4c0.5-0.1,0.9-0.2,1.4-0.3c0.2-0.1,0.5-0.1,0.7-0.2
			c0.2-0.1,0.5-0.1,0.7-0.2s0.4-0.2,0.7-0.2c0.2-0.1,0.4-0.2,0.7-0.3l0.3-0.1l0.3-0.1c0.2-0.1,0.4-0.2,0.6-0.3s0.4-0.2,0.6-0.3
			l0.3-0.2l0.3-0.2c0.2-0.1,0.4-0.2,0.6-0.4c0.2-0.1,0.4-0.3,0.6-0.4s0.4-0.3,0.6-0.4c0.2-0.1,0.4-0.3,0.5-0.4
			c0.3-0.3,0.7-0.6,1-0.9c0.7-0.6,1.2-1.3,1.7-2c0.1-0.2,0.2-0.4,0.4-0.5l0.2-0.3l0.2-0.3c0.1-0.2,0.2-0.4,0.3-0.6
			c0.1-0.2,0.2-0.4,0.3-0.6l0.1-0.3c0-0.1,0.1-0.2,0.1-0.3c0.1-0.2,0.1-0.4,0.2-0.6s0.1-0.4,0.2-0.6l0.1-0.3c0-0.1,0-0.2,0.1-0.3
			c0-0.2,0.1-0.4,0.1-0.6c0-0.2,0-0.4,0.1-0.6v-0.3v-0.3c0-0.2,0-0.4,0-0.6s0-0.4,0-0.6c0-0.1,0-0.2,0-0.3v-0.3c0-0.2,0-0.4-0.1-0.6
			c0-0.2-0.1-0.4-0.1-0.6c0-0.1,0-0.2-0.1-0.3l-0.1-0.3c-0.1-0.2-0.1-0.4-0.2-0.5c-0.1-0.2-0.1-0.3-0.2-0.5l-0.1-0.3
			c0-0.1-0.1-0.2-0.1-0.2c-0.1-0.2-0.1-0.3-0.2-0.5c-0.1-0.2-0.2-0.3-0.3-0.5c-0.2-0.3-0.4-0.6-0.5-0.9c-0.8-1.1-1.7-2-2.7-2.6
			c-1-0.7-2-1.1-2.9-1.3c-1-0.2-1.9-0.3-2.7-0.2c-0.1,0-0.2,0-0.3,0c-0.1,0-0.2,0-0.3,0c-0.2,0-0.4,0.1-0.5,0.1
			c-0.3,0.1-0.7,0.2-0.9,0.2c-0.3,0.1-0.5,0.2-0.8,0.3c-0.1,0-0.2,0.1-0.3,0.1c-1.7,0.1-3.2,1.5-3.4,3.3c-0.2,2.1,1.2,3.9,3.3,4.1
			c2,0.2,3.8-1.3,4-3.3c0.2-1.6-0.7-3.1-2-3.8c0.1,0,0.2,0,0.3,0c0.2,0,0.3,0,0.5,0c0.1,0,0.2,0,0.3,0c0.1,0,0.2,0,0.3,0
			c0.7,0,1.5,0.2,2.3,0.4c0.8,0.3,1.6,0.7,2.4,1.3s1.5,1.4,2.1,2.3c0.1,0.2,0.3,0.5,0.4,0.7c0.1,0.1,0.1,0.3,0.2,0.4
			c0.1,0.1,0.1,0.3,0.2,0.4c0,0.1,0.1,0.1,0.1,0.2l0.1,0.2c0,0.1,0.1,0.3,0.1,0.4s0.1,0.3,0.1,0.4l0.1,0.2c0,0.1,0,0.2,0,0.2
			c0,0.2,0,0.3,0.1,0.5c0,0.2,0,0.3,0,0.5v0.2c0,0.1,0,0.2,0,0.2c0,0.2,0,0.3,0,0.5c0,0.2,0,0.3,0,0.5v0.2v0.2c0,0.2,0,0.3-0.1,0.5
			c0,0.2-0.1,0.3-0.1,0.5c0,0.1,0,0.2-0.1,0.2l-0.1,0.2c-0.1,0.2-0.1,0.3-0.2,0.5c-0.1,0.2-0.1,0.3-0.2,0.5c0,0.1-0.1,0.2-0.1,0.2
			l-0.1,0.2c-0.1,0.2-0.2,0.3-0.2,0.5c-0.1,0.2-0.2,0.3-0.3,0.5l-0.1,0.2l-0.2,0.2c-0.1,0.1-0.2,0.3-0.3,0.4c-1.8,2.3-4.5,4.1-7.7,5
			c-0.2,0.1-0.4,0.1-0.6,0.2s-0.4,0.1-0.6,0.2c-0.4,0.1-0.8,0.2-1.3,0.3c-0.8,0.2-1.7,0.2-2.6,0.3c-1.7,0.1-3.5,0-5.3-0.4
			c-0.9-0.2-1.8-0.4-2.6-0.7c-0.9-0.3-1.7-0.7-2.4-1.2l-0.3-0.2l-0.3-0.2c-0.2-0.1-0.4-0.3-0.5-0.4l-0.3-0.2
			c-0.1-0.1-0.2-0.1-0.3-0.2c-0.2-0.2-0.3-0.3-0.5-0.5c-0.7-0.7-1.3-1.3-1.9-2.1c-0.5-0.8-1.1-1.6-1.5-2.6s-0.7-2.1-0.9-3.3
			c-0.2-1.2-0.1-2.5,0.1-3.8c0-0.3,0.1-0.7,0.2-1c0.1-0.3,0.2-0.7,0.3-1c0.2-0.7,0.4-1.4,0.7-2c0.3-0.7,0.6-1.3,1-2
			c0.4-0.6,0.8-1.3,1.3-1.9s1-1.2,1.6-1.8c0.3-0.3,0.6-0.6,0.9-0.8c0.2-0.1,0.3-0.3,0.5-0.4s0.3-0.3,0.5-0.4s0.3-0.3,0.5-0.4
			s0.3-0.2,0.5-0.4c0.4-0.2,0.7-0.5,1.1-0.7c0.2-0.1,0.4-0.2,0.6-0.4c0.2-0.1,0.4-0.2,0.6-0.3c0.2-0.1,0.4-0.2,0.6-0.3
			c0.2-0.1,0.4-0.2,0.6-0.3c0.4-0.2,0.8-0.4,1.2-0.6c0.4-0.2,0.8-0.4,1.2-0.6s0.8-0.3,1.3-0.5c0.2-0.1,0.4-0.2,0.6-0.2
			c0.2-0.1,0.4-0.1,0.7-0.2c0.2-0.1,0.4-0.1,0.7-0.2c0.2-0.1,0.4-0.1,0.7-0.2c0.5-0.1,0.9-0.2,1.4-0.3s0.9-0.2,1.4-0.3
			c0.2,0,0.5-0.1,0.7-0.1s0.5-0.1,0.7-0.1c1.9-0.2,3.8-0.3,5.8-0.3c0.5,0,1,0,1.5,0h0.7h0.8c0.5,0,1,0.1,1.5,0.1
			c0.2,0,0.4,0,0.7,0.1c0.1,0.1,0.3,0.2,0.5,0.3c0.5,0.3,1.2,0.4,2,0.6c0.8,0.2,1.6,0.5,2.6,0.8c1.9,0.6,4.2,1.5,6.6,2.6
			c2.4,1.2,5,2.6,7.7,4.1c3.7,2,7.2,3.9,10.3,5.3c1.6,0.7,3,1.3,4.2,1.8c0.6,0.2,1.2,0.5,1.8,0.7c0.6,0.2,1.1,0.4,1.5,0.5
			c0.4,0.2,0.9,0.4,1.5,0.7c0.5,0.2,1.1,0.5,1.8,0.7c1.3,0.5,2.7,1.1,4.3,1.7c3.2,1.2,7,2.4,11.2,3.1c1.6,0.2,3.1,0.4,4.6,0.4
			c0.7,0,1.5,0,2.2,0c0.4,0,0.7,0,1.1-0.1c0.3,0,0.7,0,1-0.1c2.4-0.3,4.6-0.9,6.4-1.6c0.4,0,0.8-0.1,1.1-0.1
			c-0.8,0.4-1.7,0.7-2.8,1.1c-0.2,0.1-0.5,0.2-0.7,0.2c-0.2,0.1-0.5,0.2-0.7,0.2c-0.5,0.2-1,0.3-1.6,0.5c-1.1,0.3-2.3,0.6-3.6,0.8
			c-1.3,0.2-2.6,0.4-4,0.5c-0.7,0-1.4,0.1-2.1,0.1c-0.4,0-0.7,0-1.1,0s-0.7-0.1-1.1-0.1c-4-0.3-7.7-1.2-10.8-2
			c-3.1-0.8-5.7-1.7-7.5-2.3c-0.8-0.4-1.9-0.9-3.1-1.5s-2.5-1.3-4-2c-1.4-0.8-3-1.6-4.6-2.5s-3.3-1.9-5.1-2.9
			c-1.3-0.8-2.6-1.5-3.8-2.2c-1.2-0.7-2.3-1.5-3.4-2.2c-1.1-0.7-2.1-1.5-3.1-2.1c-1-0.7-1.9-1.2-2.8-1.7c-1.7-1-3.3-1.6-4.3-1.9
			c-0.3-0.1-0.5-0.1-0.7-0.2c-0.2,0-0.4-0.1-0.5-0.1c-0.3,0-0.4-0.1-0.4-0.1s0.1,0,0.4,0.1c0.1,0,0.3,0.1,0.5,0.2s0.4,0.2,0.7,0.3
			c1,0.4,2.4,1.2,4,2.3c0.8,0.6,1.7,1.2,2.6,1.9s1.9,1.5,2.9,2.3c1,0.8,2.2,1.6,3.4,2.4c1.2,0.7,2.5,1.5,3.8,2.3
			c1.8,1,3.5,2,5.2,2.9c1.7,0.8,3.3,1.6,4.8,2.3c1.5,0.6,2.9,1.2,4.1,1.7s2.3,0.9,3.2,1.2c1.7,0.8,4.2,1.9,7.3,3
			c3.1,1,6.9,2.1,11,2.4c0.4,0,0.8,0.1,1.1,0.1c0.4,0,0.8,0,1.1,0c0.7,0,1.5,0,2.2-0.1c1.4-0.1,2.8-0.4,4.1-0.7
			c1.3-0.3,2.5-0.7,3.6-1.1c0.5-0.2,1.1-0.4,1.6-0.6c0.3-0.1,0.5-0.2,0.7-0.3s0.5-0.2,0.7-0.3c1.5-0.7,2.7-1.4,3.5-1.9
			c0.6-0.1,1.2-0.2,1.8-0.4c1-0.3,2-0.7,2.8-1.3c-0.1-0.1-0.1-0.3-0.2-0.4c0,0,0,0,0-0.1c-0.8,0.5-1.7,0.9-2.7,1.1
			c-0.1,0-0.2,0-0.3,0.1c0.1-0.1,0.2-0.1,0.2-0.2c0.1-0.1,0.2-0.1,0.2-0.2c0.4-0.2,0.8-0.3,1.1-0.5c0.7-0.2,1.1-0.4,1.4-0.5l0,0
			c-0.3,0.1-0.8,0.2-1.5,0.3c-0.5,0.2-1.2,0.3-2,0.6c-0.8,0.2-1.7,0.5-2.6,0.8c-0.2,0.1-0.5,0.1-0.7,0.2
			C212.4,303.6,209.5,303.3,206.4,302.6z M218.1,303.2c0.2-0.1,0.3-0.1,0.5-0.2s0.4-0.2,0.6-0.2c0,0,0,0-0.1,0
			c-0.1,0.1-0.3,0.2-0.5,0.3C218.4,303.1,218.3,303.2,218.1,303.2z M211.7,304.2c-0.9,0.2-1.8,0.3-2.8,0.3c-0.3,0-0.7,0-1,0
			s-0.7,0-1,0c-0.7,0-1.4,0-2.1-0.1c-1.4-0.1-2.9-0.2-4.4-0.5c-4.1-0.6-7.9-1.7-11.1-2.7c-1.6-0.5-3.1-0.9-4.4-1.3
			c-0.6-0.2-1.3-0.4-1.8-0.6c-0.6-0.2-1.1-0.3-1.5-0.5c-0.4-0.2-0.9-0.4-1.5-0.7c-0.5-0.3-1.1-0.5-1.7-0.8c-1.2-0.6-2.6-1.3-4.1-2.1
			c-3-1.6-6.4-3.6-10.1-5.6c-2.7-1.5-5.4-2.8-7.9-3.9c-2.5-1-4.9-1.7-6.9-2.2c-1-0.2-1.9-0.4-2.7-0.5c-0.8-0.1-1.5-0.2-2-0.4l0,0
			c0.1,0,0.2,0,0.4,0c0.5,0,1,0.1,1.5,0.1c0.5,0.1,1,0.1,1.5,0.2s1,0.1,1.5,0.2l0.8,0.1c0.3,0,0.5,0.1,0.8,0.1
			c0.5,0.1,1,0.2,1.5,0.3s1,0.2,1.5,0.3c1,0.2,2,0.5,3,0.7c0.5,0.1,1,0.3,1.5,0.4s1,0.3,1.5,0.4c1,0.3,2,0.6,2.9,1
			c2,0.7,3.9,1.4,5.8,2.2c1.9,0.8,3.8,1.6,5.7,2.4c1.9,0.8,3.7,1.6,5.6,2.4c1.8,0.8,3.7,1.6,5.5,2.4c3.6,1.5,7.1,3.1,10.5,4.4
			c1.7,0.7,3.4,1.3,5.1,1.8s3.3,0.9,4.9,1.3C208.1,303.9,209.9,304.1,211.7,304.2z"/>
		<path class="st0" d="M189.4,307.1c-0.3-0.1-0.6-0.2-1-0.3c-0.3-0.1-0.6-0.2-0.8-0.3c-0.3-0.1-0.6-0.2-0.9-0.2
			c-0.6-0.1-1.1-0.3-1.7-0.4c-0.3-0.1-0.6-0.1-0.9-0.2c-0.3-0.1-0.6-0.1-0.9-0.2c-0.1,0-0.3-0.1-0.4-0.1l-0.4-0.1
			c-0.3,0-0.6-0.1-0.9-0.1s-0.6-0.1-0.9-0.1s-0.6-0.1-0.9-0.1c-0.1,0-0.1,0-0.2,0l0,0c0.3,0.1,0.6,0.1,0.9,0.2c-0.3,0-0.7-0.1-1-0.1
			c-0.1,0-0.2-0.1-0.3-0.2c-0.1,0-0.3,0-0.4,0c-0.3,0-0.6,0-0.9-0.1h-0.4H177c-0.3,0-0.6,0-0.9,0c-1.1,0-2.2,0-3.3,0.2
			c-0.1,0-0.3,0-0.4,0.1c-0.1,0-0.3,0-0.4,0.1c-0.3,0-0.5,0.1-0.8,0.1c-0.3,0.1-0.5,0.1-0.8,0.2c-0.1,0-0.3,0.1-0.4,0.1
			s-0.3,0.1-0.4,0.1s-0.3,0.1-0.4,0.1s-0.2,0.1-0.4,0.1c-0.2,0.1-0.5,0.2-0.7,0.3c-0.2,0.1-0.5,0.2-0.7,0.3s-0.5,0.2-0.7,0.3
			c-0.1,0.1-0.2,0.1-0.3,0.2c-0.1,0.1-0.2,0.1-0.3,0.2c-0.1,0.1-0.2,0.1-0.3,0.2c-0.1,0.1-0.2,0.1-0.3,0.2c-0.2,0.1-0.4,0.3-0.6,0.4
			c-0.1,0.1-0.2,0.1-0.3,0.2c-0.1,0.1-0.2,0.1-0.3,0.2c-0.1,0.1-0.2,0.1-0.3,0.2c-0.1,0.1-0.2,0.2-0.3,0.2c-0.2,0.1-0.3,0.3-0.5,0.5
			c-0.3,0.3-0.6,0.7-0.9,1c-0.3,0.4-0.5,0.7-0.8,1.1c-0.2,0.4-0.4,0.8-0.6,1.2s-0.3,0.8-0.4,1.2c0,0.2-0.1,0.4-0.1,0.6
			c0,0.2-0.1,0.4-0.1,0.6c-0.1,0.8-0.1,1.5,0,2.2c0.1,0.7,0.3,1.3,0.5,1.9c0.2,0.6,0.5,1.1,0.8,1.5c0.3,0.4,0.7,0.8,1.1,1.2
			c0.1,0.1,0.2,0.2,0.3,0.3c0,0,0.1,0.1,0.2,0.1l0.2,0.1c0.1,0.1,0.2,0.2,0.3,0.2l0.2,0.1l0.2,0.1c0.4,0.3,0.9,0.5,1.4,0.7
			c0.5,0.2,1,0.3,1.5,0.4c1,0.2,2,0.3,3,0.2c0.5,0,1-0.1,1.5-0.2c0.2,0,0.5-0.1,0.7-0.1c0.1,0,0.2-0.1,0.4-0.1
			c0.1,0,0.2-0.1,0.3-0.1c1.8-0.5,3.4-1.6,4.4-2.9c0.1-0.1,0.1-0.2,0.2-0.3l0.1-0.1l0.1-0.1c0.1-0.1,0.1-0.2,0.2-0.3
			c0-0.1,0.1-0.2,0.1-0.3l0.1-0.1c0,0,0-0.1,0.1-0.1c0-0.1,0.1-0.2,0.1-0.3c0-0.1,0.1-0.2,0.1-0.3v-0.1v-0.1c0-0.1,0-0.2,0.1-0.3
			c0-0.1,0-0.2,0-0.3v-0.1v-0.1c0-0.1,0-0.2,0-0.3c0-0.1,0-0.2,0-0.3V317v-0.1c0-0.1,0-0.2,0-0.3s0-0.2,0-0.3v-0.1v-0.1
			c0-0.1,0-0.2-0.1-0.3c0-0.1-0.1-0.2-0.1-0.2v-0.1v-0.1c0-0.1-0.1-0.2-0.1-0.2c0-0.1-0.1-0.1-0.1-0.2c-0.1-0.2-0.2-0.3-0.2-0.4
			c-0.3-0.6-0.8-1-1.2-1.3c-0.4-0.3-0.9-0.6-1.4-0.7c-0.5-0.2-0.9-0.2-1.3-0.2c-0.1,0-0.1,0-0.1,0h-0.1c-0.1,0-0.2,0-0.3,0
			c-0.1,0-0.1,0-0.2,0c0.8,0.4,1.3,1.2,1.2,2.2c-0.1,1.2-1.2,2-2.3,1.9c-1.2-0.1-2-1.2-1.9-2.4c0.1-1.1,0.9-1.9,1.9-1.9
			c0,0,0.1,0,0.1-0.1c0.1,0,0.3-0.1,0.4-0.2c0.2-0.1,0.3-0.1,0.5-0.1c0.1,0,0.2,0,0.3,0c0.1,0,0.1,0,0.2,0s0.1,0,0.2,0
			c0.5,0,1,0,1.5,0.1c0.5,0.1,1.1,0.4,1.7,0.8c0.6,0.4,1.1,0.9,1.5,1.5c0.1,0.2,0.2,0.3,0.3,0.5c0,0.1,0.1,0.2,0.1,0.3
			s0.1,0.2,0.1,0.3c0,0,0,0.1,0.1,0.1l0.1,0.1c0,0.1,0.1,0.2,0.1,0.3s0.1,0.2,0.1,0.3v0.2c0,0.1,0,0.1,0,0.2s0,0.2,0.1,0.3
			c0,0.1,0,0.2,0,0.3v0.2c0,0.1,0,0.1,0,0.2s0,0.2,0,0.3s0,0.2,0,0.3v0.2v0.2c0,0.1,0,0.2,0,0.4c0,0.1,0,0.2-0.1,0.3
			c0,0.1,0,0.1,0,0.2v0.2c0,0.1-0.1,0.2-0.1,0.3s-0.1,0.2-0.1,0.3c0,0.1,0,0.1-0.1,0.2l-0.1,0.2c-0.1,0.1-0.1,0.2-0.2,0.3
			s-0.1,0.2-0.2,0.3l-0.1,0.2l-0.1,0.2c-0.1,0.1-0.1,0.2-0.2,0.3c-0.3,0.4-0.6,0.8-1,1.1c-0.2,0.2-0.4,0.3-0.6,0.5
			c-0.1,0.1-0.2,0.2-0.3,0.2c-0.1,0.1-0.2,0.2-0.3,0.2c-0.1,0.1-0.2,0.1-0.3,0.2c-0.1,0.1-0.2,0.1-0.3,0.2l-0.2,0.1l-0.2,0.1
			c-0.1,0.1-0.2,0.1-0.4,0.2c-0.1,0.1-0.2,0.1-0.4,0.2l-0.2,0.1l-0.2,0.1c-0.1,0-0.2,0.1-0.4,0.1c-0.1,0-0.3,0.1-0.4,0.1
			s-0.3,0.1-0.4,0.1s-0.3,0.1-0.4,0.1c-0.3,0.1-0.5,0.1-0.8,0.2c-0.5,0.1-1.1,0.2-1.7,0.2c-1.1,0.1-2.3,0-3.4-0.2
			c-0.6-0.1-1.2-0.3-1.7-0.5c-0.6-0.2-1.1-0.5-1.7-0.8l-0.2-0.1l-0.2-0.1c-0.1-0.1-0.3-0.2-0.4-0.3l-0.2-0.2
			c-0.1-0.1-0.1-0.1-0.2-0.2c-0.1-0.1-0.2-0.2-0.4-0.3c-0.5-0.4-0.9-0.9-1.3-1.5c-0.4-0.5-0.7-1.1-1-1.8c-0.3-0.7-0.5-1.5-0.6-2.3
			c-0.2-1.7,0.1-3.6,0.9-5.4c0.2-0.5,0.4-0.9,0.7-1.3c0.3-0.4,0.6-0.9,0.9-1.3s0.7-0.8,1.1-1.2c0.2-0.2,0.4-0.4,0.6-0.5
			c0.1-0.1,0.2-0.2,0.3-0.3c0.1-0.1,0.2-0.2,0.3-0.2c0.1-0.1,0.2-0.2,0.3-0.2c0.1-0.1,0.2-0.2,0.3-0.2c0.2-0.1,0.5-0.3,0.7-0.4
			c0.1-0.1,0.2-0.1,0.3-0.2c0.1-0.1,0.2-0.1,0.4-0.2c0.1-0.1,0.2-0.1,0.4-0.2c0.1-0.1,0.2-0.1,0.4-0.2c0.2-0.1,0.5-0.2,0.7-0.4
			c0.3-0.1,0.5-0.2,0.8-0.3c0.3-0.1,0.5-0.2,0.8-0.3c0.1,0,0.3-0.1,0.4-0.1s0.3-0.1,0.4-0.1s0.3-0.1,0.4-0.1s0.3-0.1,0.4-0.1
			c0.3-0.1,0.6-0.1,0.8-0.2c0.3,0,0.6-0.1,0.9-0.1c0.1,0,0.3,0,0.4-0.1c0.1,0,0.3,0,0.4,0c1.2-0.1,2.3-0.2,3.5-0.1
			c0.3,0,0.6,0,0.9,0h0.4h0.4c0.3,0,0.6,0,0.9,0.1c0.3,0,0.6,0.1,0.9,0.1s0.6,0.1,0.9,0.1s0.6,0.1,0.9,0.1s0.6,0.1,0.9,0.1l0.4,0.1
			c0.1,0,0.3,0.1,0.4,0.1c0.3,0.1,0.6,0.1,0.9,0.2s0.6,0.1,0.9,0.2c0.6,0.1,1.2,0.3,1.8,0.5c0.3,0.1,0.6,0.2,0.9,0.3
			s0.6,0.2,0.9,0.3c0.6,0.2,1.1,0.4,1.7,0.6c0.4,0.1,0.8,0.3,1.2,0.4c0,0.2,0.1,0.5,0.1,0.7C190.9,307.4,190.2,307.2,189.4,307.1z"
			/>
		<path class="st0" d="M229,274.9c-1.4-5.4-5.3-11.2-12.2-11.2c-7.3,0-13.6,4.7-11.7,11.8c1.7,6.3,8.4,10.4,15.1,7.1
			c0.3-0.2,0.6-0.4,0.7-0.8c0.1-0.1,0.2-0.3,0.2-0.5c1.5-2.5-0.7-6-3.8-7.4c-2.4-1-5.6-1.6-7.9-0.6c-0.5-1.9-0.1-4.2,1.1-5.4
			c0.5-0.5,1.3-1.2,1.8-1.4c2.7-1.1,6.2-1.1,8.8,0.4c6,3.5,7,11.5,6.1,17.2c-1.1,7.3-6.5,13.8-15.1,14.9c-0.5,0.1-0.9,0.1-1.3,0.1
			c-0.1,0-0.2-0.1-0.3-0.1c-4.5-0.5-9.5-2.1-12.5-5.4c-2.5-2.8-5.5-7.1-3.4-10.3c2-3.1-0.9-1.9-1.8-1.2c-2.1,1.6-2.7,3.8-2.9,6.2
			c-2.5-4-5.3-8.4-10.3-9.9c-4.9-1.4-10.8-1.4-14.9,1.5c-0.5,0.4-0.8,1-0.5,1.4c0,0.5,0.6,0.8,1.3,0.8c6,0.2,11.4,3,16.3,6
			c5.2,3.1,10.1,6.7,15.5,9.4c4.6,2.4,10,4.2,15.4,3.4c5.2-0.8,10.8-3.7,13.7-7.8C229.7,288,230.6,280.9,229,274.9z M217.8,277.9
			l0.1,0.1C217.9,278,217.9,277.9,217.8,277.9C217.9,277.9,217.8,277.9,217.8,277.9z"/>
		<g>
			<path class="st0" d="M244.4,303.5c-0.2-0.1-0.5-0.1-0.7-0.2c-1-0.3-1.9-0.5-2.6-0.8c-0.8-0.2-1.4-0.4-2-0.6
				c-0.7-0.2-1.2-0.3-1.5-0.3l0,0c0.3,0.1,0.7,0.3,1.4,0.5c0.3,0.1,0.7,0.3,1.1,0.5c0.1,0,0.1,0.1,0.2,0.2c0.1,0.1,0.1,0.1,0.2,0.2
				c-0.1,0-0.2,0-0.3-0.1c-1-0.3-1.9-0.6-2.7-1.1c0,0,0,0,0,0.1c-0.1,0.2-0.1,0.3-0.2,0.4c0.8,0.5,1.8,1,2.8,1.3
				c0.6,0.2,1.2,0.3,1.8,0.4c0.9,0.6,2.1,1.3,3.5,1.9c0.2,0.1,0.5,0.2,0.7,0.3c0.2,0.1,0.5,0.2,0.7,0.3c0.5,0.2,1,0.4,1.6,0.6
				c1.1,0.4,2.3,0.8,3.6,1.1c1.3,0.3,2.7,0.6,4.1,0.7c0.7,0.1,1.5,0.1,2.2,0.1c0.4,0,0.7,0,1.1,0s0.8,0,1.1-0.1
				c4.1-0.3,7.9-1.4,11-2.4c3.1-1.1,5.6-2.2,7.3-3c0.9-0.3,2-0.7,3.2-1.2s2.6-1.1,4.1-1.7c1.5-0.7,3.1-1.5,4.8-2.3
				c1.7-0.9,3.4-1.8,5.2-2.9c1.3-0.8,2.6-1.5,3.8-2.3c1.2-0.8,2.4-1.6,3.4-2.4c1-0.8,2-1.6,2.9-2.3c0.9-0.7,1.8-1.4,2.6-1.9
				c1.6-1.1,3-1.9,4-2.3c0.3-0.1,0.5-0.2,0.7-0.3s0.4-0.1,0.5-0.2c0.3-0.1,0.4-0.1,0.4-0.1s-0.2,0-0.4,0.1c-0.1,0-0.3,0.1-0.5,0.1
				s-0.4,0.1-0.7,0.2c-1.1,0.3-2.6,0.9-4.3,1.9c-0.9,0.5-1.8,1.1-2.8,1.7c-1,0.7-2,1.4-3.1,2.1c-1.1,0.7-2.2,1.5-3.4,2.2
				c-1.2,0.7-2.5,1.4-3.8,2.2c-1.8,1-3.5,2-5.1,2.9s-3.2,1.7-4.6,2.5c-1.5,0.7-2.8,1.4-4,2s-2.2,1.1-3.1,1.5
				c-1.8,0.6-4.3,1.4-7.5,2.3c-3.1,0.8-6.8,1.7-10.8,2c-0.4,0-0.7,0.1-1.1,0.1s-0.7,0-1.1,0c-0.7,0-1.4,0-2.1-0.1
				c-1.4-0.1-2.7-0.3-4-0.5c-1.3-0.2-2.4-0.5-3.6-0.8c-0.5-0.2-1.1-0.3-1.6-0.5c-0.3-0.1-0.5-0.2-0.7-0.2c-0.2-0.1-0.5-0.2-0.7-0.2
				c-1.1-0.4-2-0.7-2.8-1.1c0.4,0,0.7,0.1,1.1,0.1c1.8,0.6,3.9,1.3,6.4,1.6c0.3,0.1,0.7,0.1,1,0.1s0.7,0.1,1.1,0.1
				c0.7,0,1.4,0.1,2.2,0c1.5,0,3-0.2,4.6-0.4c4.2-0.6,8-1.9,11.2-3.1c1.6-0.6,3-1.2,4.3-1.7c0.6-0.3,1.2-0.5,1.8-0.7
				c0.5-0.2,1-0.5,1.5-0.7c0.5-0.2,1-0.3,1.5-0.5c0.5-0.2,1.1-0.4,1.8-0.7c1.3-0.5,2.7-1.1,4.2-1.8c3.1-1.4,6.6-3.2,10.3-5.3
				c2.7-1.5,5.3-2.9,7.7-4.1c2.4-1.1,4.6-2,6.6-2.6c1-0.3,1.8-0.6,2.6-0.8c0.8-0.2,1.5-0.4,2-0.6c0.2-0.1,0.3-0.2,0.5-0.3
				c0.2,0,0.4,0,0.7-0.1c0.5,0,1-0.1,1.5-0.1h0.8h0.7c0.5,0,1,0,1.5,0c2,0,3.9,0.1,5.8,0.3c0.2,0,0.5,0.1,0.7,0.1s0.5,0.1,0.7,0.1
				c0.5,0.1,0.9,0.2,1.4,0.3s0.9,0.2,1.4,0.3c0.2,0,0.4,0.1,0.7,0.2c0.2,0.1,0.4,0.1,0.7,0.2c0.2,0.1,0.4,0.1,0.7,0.2
				c0.2,0.1,0.4,0.2,0.6,0.2c0.4,0.2,0.9,0.3,1.3,0.5s0.8,0.4,1.2,0.6c0.4,0.2,0.8,0.4,1.2,0.6c0.2,0.1,0.4,0.2,0.6,0.3
				s0.4,0.2,0.6,0.3s0.4,0.2,0.6,0.3c0.2,0.1,0.4,0.2,0.6,0.4c0.4,0.2,0.7,0.5,1.1,0.7c0.2,0.1,0.3,0.2,0.5,0.4
				c0.2,0.1,0.3,0.2,0.5,0.4c0.2,0.1,0.3,0.3,0.5,0.4s0.3,0.3,0.5,0.4c0.3,0.3,0.6,0.6,0.9,0.8c0.6,0.6,1.1,1.2,1.6,1.8
				c0.5,0.6,0.9,1.3,1.3,1.9c0.4,0.7,0.7,1.3,1,2c0.3,0.7,0.5,1.4,0.7,2c0.1,0.3,0.2,0.7,0.3,1c0.1,0.3,0.1,0.7,0.2,1
				c0.2,1.3,0.2,2.6,0.1,3.8c-0.2,1.2-0.5,2.3-0.9,3.3s-0.9,1.9-1.5,2.6c-0.5,0.8-1.2,1.5-1.9,2.1c-0.2,0.2-0.3,0.3-0.5,0.5
				c-0.1,0.1-0.2,0.2-0.3,0.2l-0.3,0.2c-0.2,0.1-0.4,0.3-0.5,0.4l-0.3,0.2l-0.3,0.2c-0.8,0.5-1.6,0.9-2.4,1.2
				c-0.9,0.3-1.7,0.6-2.6,0.7c-1.8,0.4-3.6,0.5-5.3,0.4c-0.9,0-1.7-0.1-2.6-0.3c-0.4-0.1-0.8-0.2-1.3-0.3c-0.2,0-0.4-0.1-0.6-0.2
				s-0.4-0.1-0.6-0.2c-3.2-1-6-2.7-7.7-5c-0.1-0.1-0.2-0.3-0.3-0.4l-0.2-0.2l-0.1-0.2c-0.1-0.2-0.2-0.3-0.3-0.5
				c-0.1-0.2-0.2-0.3-0.2-0.5l-0.1-0.2c0-0.1-0.1-0.2-0.1-0.2c-0.1-0.2-0.1-0.3-0.2-0.5c-0.1-0.2-0.1-0.3-0.2-0.5l-0.1-0.2
				c0-0.1,0-0.2-0.1-0.2c0-0.2-0.1-0.3-0.1-0.5c0-0.2,0-0.3-0.1-0.5v-0.2v-0.2c0-0.2,0-0.3,0-0.5c0-0.2,0-0.3,0-0.5
				c0-0.1,0-0.2,0-0.2v-0.2c0-0.2,0-0.3,0-0.5c0-0.2,0-0.3,0.1-0.5c0-0.1,0-0.2,0-0.2l0.1-0.2c0-0.1,0.1-0.3,0.1-0.4
				s0.1-0.3,0.1-0.4l0.1-0.2c0-0.1,0.1-0.1,0.1-0.2c0.1-0.1,0.1-0.3,0.2-0.4c0.1-0.1,0.1-0.3,0.2-0.4c0.1-0.3,0.3-0.5,0.4-0.7
				c0.6-1,1.3-1.7,2.1-2.3c0.8-0.6,1.6-1,2.4-1.3c0.8-0.3,1.6-0.4,2.3-0.4c0.1,0,0.2,0,0.3,0c0.1,0,0.2,0,0.3,0c0.2,0,0.3,0,0.5,0
				c0.1,0,0.2,0,0.3,0c-1.3,0.7-2.2,2.1-2,3.8c0.2,2.1,2,3.6,4,3.3c2-0.2,3.5-2.1,3.3-4.1c-0.2-1.8-1.7-3.2-3.4-3.3
				c-0.1,0-0.2-0.1-0.3-0.1c-0.2-0.1-0.5-0.2-0.8-0.3s-0.6-0.2-0.9-0.2c-0.2,0-0.4-0.1-0.5-0.1s-0.2,0-0.3,0c-0.1,0-0.2,0-0.3,0
				c-0.8-0.1-1.7,0-2.7,0.2c-1,0.2-2,0.7-2.9,1.3c-1,0.7-1.9,1.5-2.7,2.6c-0.2,0.3-0.4,0.6-0.5,0.9c-0.1,0.2-0.2,0.3-0.3,0.5
				c-0.1,0.2-0.1,0.3-0.2,0.5c0,0.1-0.1,0.2-0.1,0.2l-0.1,0.3c-0.1,0.2-0.1,0.3-0.2,0.5c-0.1,0.2-0.1,0.4-0.2,0.5l-0.1,0.3
				c0,0.1,0,0.2-0.1,0.3c0,0.2-0.1,0.4-0.1,0.6c0,0.2-0.1,0.4-0.1,0.6v0.3c0,0.1,0,0.2,0,0.3c0,0.2,0,0.4,0,0.6s0,0.4,0,0.6v0.3v0.3
				c0,0.2,0,0.4,0.1,0.6c0,0.2,0.1,0.4,0.1,0.6c0,0.1,0,0.2,0.1,0.3l0.1,0.3c0.1,0.2,0.1,0.4,0.2,0.6s0.1,0.4,0.2,0.6
				c0,0.1,0.1,0.2,0.1,0.3l0.1,0.3c0.1,0.2,0.2,0.4,0.3,0.6c0.1,0.2,0.2,0.4,0.3,0.6l0.2,0.3l0.2,0.3c0.1,0.2,0.2,0.4,0.4,0.5
				c0.5,0.7,1.1,1.4,1.7,2c0.3,0.3,0.7,0.6,1,0.9c0.2,0.1,0.4,0.3,0.5,0.4c0.2,0.1,0.4,0.3,0.6,0.4s0.4,0.3,0.6,0.4s0.4,0.2,0.6,0.4
				l0.3,0.2l0.3,0.2c0.2,0.1,0.4,0.2,0.6,0.3s0.4,0.2,0.6,0.3l0.3,0.1l0.3,0.1c0.2,0.1,0.4,0.2,0.7,0.3c0.2,0.1,0.4,0.2,0.7,0.2
				c0.2,0.1,0.4,0.1,0.7,0.2c0.2,0.1,0.5,0.1,0.7,0.2c0.5,0.1,0.9,0.2,1.4,0.3c0.9,0.2,1.9,0.3,2.9,0.4c2,0.1,4,0,6-0.4
				c1-0.2,2-0.5,3-0.8c1-0.4,2-0.8,2.9-1.4l0.4-0.2l0.3-0.2c0.2-0.2,0.5-0.3,0.7-0.5l0.3-0.3c0.1-0.1,0.2-0.2,0.3-0.3
				c0.2-0.2,0.4-0.4,0.6-0.6c0.8-0.8,1.6-1.6,2.2-2.5c0.7-0.9,1.3-2,1.8-3.2c0.5-1.2,0.9-2.6,1.1-4.1c0.4-2.9-0.1-6.3-1.5-9.4
				c-0.3-0.8-0.8-1.6-1.2-2.3c-0.5-0.7-1-1.5-1.5-2.2c-0.6-0.7-1.2-1.4-1.8-2c-0.3-0.3-0.7-0.6-1-0.9c-0.2-0.1-0.4-0.3-0.5-0.5
				c-0.2-0.1-0.4-0.3-0.6-0.4s-0.4-0.3-0.6-0.4c-0.2-0.1-0.4-0.3-0.6-0.4c-0.4-0.2-0.8-0.5-1.2-0.7c-0.2-0.1-0.4-0.2-0.6-0.4
				c-0.2-0.1-0.4-0.2-0.6-0.3s-0.4-0.2-0.6-0.3s-0.4-0.2-0.6-0.3c-0.4-0.2-0.9-0.4-1.3-0.6c-0.4-0.2-0.9-0.4-1.3-0.6
				c-0.4-0.2-0.9-0.4-1.4-0.5c-0.2-0.1-0.5-0.2-0.7-0.3c-0.2-0.1-0.5-0.1-0.7-0.2s-0.5-0.1-0.7-0.2s-0.5-0.1-0.7-0.2
				c-0.5-0.1-1-0.2-1.5-0.3s-1-0.2-1.5-0.3c-0.2,0-0.5-0.1-0.8-0.1s-0.5-0.1-0.8-0.1c-2-0.2-4.1-0.3-6.1-0.2c-0.5,0-1,0-1.5,0.1
				h-0.8l-0.8,0.1c-0.5,0-1,0.1-1.5,0.1c-0.5,0.1-1,0.1-1.5,0.2c-0.5,0-1,0.1-1.5,0.2s-1,0.1-1.5,0.2s-1,0.2-1.6,0.2l-0.8,0.1
				c-0.3,0-0.5,0.1-0.8,0.1c-0.5,0.1-1,0.2-1.6,0.3c-0.5,0.1-1,0.2-1.5,0.4c-1,0.2-2,0.5-3.1,0.8c-0.5,0.1-1,0.3-1.5,0.5
				s-1,0.3-1.5,0.5c-1,0.3-2,0.7-3,1c-2,0.7-3.9,1.5-5.8,2.3c-1.9,0.8-3.8,1.6-5.7,2.5c-1.9,0.8-3.7,1.7-5.5,2.5
				c-1.8,0.8-3.6,1.7-5.4,2.5c-3.6,1.6-7,3.2-10.4,4.6c-1.7,0.7-3.3,1.3-5,1.9c-1.6,0.6-3.2,1-4.8,1.4
				C250,303.3,247.1,303.6,244.4,303.5z M240.9,303.1c-0.2-0.1-0.4-0.2-0.5-0.3c0,0,0,0-0.1,0c0.2,0.1,0.4,0.2,0.6,0.2
				c0.2,0.1,0.3,0.1,0.5,0.2C241.2,303.2,241.1,303.1,240.9,303.1z M253.3,303.5c1.6-0.4,3.3-0.8,4.9-1.3c1.7-0.5,3.4-1.1,5.1-1.8
				c3.4-1.3,6.9-2.9,10.5-4.4c1.8-0.8,3.6-1.6,5.5-2.4c1.8-0.8,3.7-1.6,5.6-2.4c1.9-0.8,3.8-1.6,5.7-2.4c1.9-0.8,3.8-1.5,5.8-2.2
				c1-0.3,2-0.7,2.9-1c0.5-0.2,1-0.3,1.5-0.4s1-0.3,1.5-0.4c1-0.2,2-0.5,3-0.7c0.5-0.1,1-0.2,1.5-0.3s1-0.2,1.5-0.3
				c0.3,0,0.5-0.1,0.8-0.1l0.8-0.1c0.5-0.1,1-0.1,1.5-0.2c0.5-0.1,1-0.1,1.5-0.2s1-0.1,1.5-0.1c0.1,0,0.2,0,0.4,0l0,0
				c-0.5,0.2-1.2,0.3-2,0.4s-1.7,0.3-2.7,0.5c-2,0.4-4.3,1.2-6.9,2.2c-2.5,1.1-5.2,2.4-7.9,3.9c-3.7,2-7.1,4-10.1,5.6
				c-1.5,0.8-2.8,1.5-4.1,2.1c-0.6,0.3-1.2,0.6-1.7,0.8s-1,0.5-1.5,0.7c-0.5,0.1-1,0.3-1.5,0.5c-0.6,0.2-1.2,0.4-1.8,0.6
				c-1.3,0.4-2.8,0.9-4.4,1.3c-3.2,1-7,2-11.1,2.7c-1.5,0.2-3,0.4-4.4,0.5c-0.7,0.1-1.4,0-2.1,0.1c-0.3,0-0.7,0-1,0s-0.7,0-1,0
				c-1-0.1-1.9-0.2-2.8-0.3C249.5,304.1,251.4,303.9,253.3,303.5z"/>
			<path class="st0" d="M270.1,307.1c0.3-0.1,0.6-0.2,1-0.3c0.3-0.1,0.6-0.2,0.8-0.3c0.3-0.1,0.6-0.2,0.9-0.2
				c0.6-0.1,1.1-0.3,1.7-0.4c0.3-0.1,0.6-0.1,0.9-0.2c0.3-0.1,0.6-0.1,0.9-0.2c0.1,0,0.3-0.1,0.4-0.1l0.4-0.1c0.3,0,0.6-0.1,0.9-0.1
				s0.6-0.1,0.9-0.1s0.6-0.1,0.9-0.1c0.1,0,0.1,0,0.2,0l0,0c-0.3,0.1-0.6,0.1-0.9,0.2c0.3,0,0.7-0.1,1-0.1c0.1,0,0.2-0.1,0.3-0.2
				c0.1,0,0.3,0,0.4,0c0.3,0,0.6,0,0.9-0.1h0.4h0.4c0.3,0,0.6,0,0.9,0c1.1,0,2.2,0,3.3,0.2c0.1,0,0.3,0,0.4,0.1c0.1,0,0.3,0,0.4,0.1
				c0.3,0,0.5,0.1,0.8,0.1c0.3,0.1,0.5,0.1,0.8,0.2c0.1,0,0.3,0.1,0.4,0.1s0.3,0.1,0.4,0.1s0.3,0.1,0.4,0.1s0.2,0.1,0.4,0.1
				c0.2,0.1,0.5,0.2,0.7,0.3c0.2,0.1,0.5,0.2,0.7,0.3s0.5,0.2,0.7,0.3c0.1,0.1,0.2,0.1,0.3,0.2c0.1,0.1,0.2,0.1,0.3,0.2
				c0.1,0.1,0.2,0.1,0.3,0.2c0.1,0.1,0.2,0.1,0.3,0.2c0.2,0.1,0.4,0.3,0.6,0.4c0.1,0.1,0.2,0.1,0.3,0.2c0.1,0.1,0.2,0.1,0.3,0.2
				c0.1,0.1,0.2,0.1,0.3,0.2c0.1,0.1,0.2,0.2,0.3,0.2c0.2,0.1,0.3,0.3,0.5,0.5c0.3,0.3,0.6,0.7,0.9,1c0.3,0.4,0.5,0.7,0.8,1.1
				c0.2,0.4,0.4,0.8,0.6,1.2s0.3,0.8,0.4,1.2c0,0.2,0.1,0.4,0.1,0.6c0,0.2,0.1,0.4,0.1,0.6c0.1,0.8,0.1,1.5,0,2.2
				c-0.1,0.7-0.3,1.3-0.5,1.9c-0.2,0.6-0.5,1.1-0.8,1.5c-0.3,0.4-0.7,0.8-1.1,1.2c-0.1,0.1-0.2,0.2-0.3,0.3c0,0-0.1,0.1-0.2,0.1
				l-0.2,0.1c-0.1,0.1-0.2,0.2-0.3,0.2l-0.2,0.1l-0.2,0.1c-0.4,0.3-0.9,0.5-1.4,0.7c-0.5,0.2-1,0.3-1.5,0.4c-1,0.2-2,0.3-3,0.2
				c-0.5,0-1-0.1-1.5-0.2c-0.2,0-0.5-0.1-0.7-0.1c-0.1,0-0.2-0.1-0.4-0.1c-0.1,0-0.2-0.1-0.3-0.1c-1.8-0.5-3.4-1.6-4.4-2.9
				c-0.1-0.1-0.1-0.2-0.2-0.3l-0.1-0.1l-0.1-0.1c-0.1-0.1-0.1-0.2-0.2-0.3c0-0.1-0.1-0.2-0.1-0.3l-0.1-0.1c0,0,0-0.1-0.1-0.1
				c0-0.1-0.1-0.2-0.1-0.3c0-0.1-0.1-0.2-0.1-0.3v-0.1v-0.1c0-0.1,0-0.2-0.1-0.3c0-0.1,0-0.2,0-0.3v-0.1v-0.1c0-0.1,0-0.2,0-0.3
				c0-0.1,0-0.2,0-0.3V317v-0.1c0-0.1,0-0.2,0-0.3s0-0.2,0-0.3v-0.1v-0.1c0-0.1,0-0.2,0.1-0.3c0-0.1,0.1-0.2,0.1-0.2v-0.1v-0.1
				c0-0.1,0.1-0.2,0.1-0.2c0-0.1,0.1-0.1,0.1-0.2c0.1-0.2,0.2-0.3,0.2-0.4c0.3-0.6,0.8-1,1.2-1.3c0.4-0.3,0.9-0.6,1.4-0.7
				c0.5-0.2,0.9-0.2,1.3-0.2c0.1,0,0.1,0,0.1,0h0.1c0.1,0,0.2,0,0.3,0c0.1,0,0.1,0,0.2,0c-0.8,0.4-1.3,1.2-1.2,2.2
				c0.1,1.2,1.2,2,2.3,1.9c1.2-0.1,2-1.2,1.9-2.4c-0.1-1.1-0.9-1.9-1.9-1.9c0,0-0.1,0-0.1-0.1c-0.1,0-0.3-0.1-0.4-0.2
				c-0.2-0.1-0.3-0.1-0.5-0.1c-0.1,0-0.2,0-0.3,0c-0.1,0-0.1,0-0.2,0s-0.1,0-0.2,0c-0.5,0-1,0-1.5,0.1c-0.5,0.1-1.1,0.4-1.7,0.8
				c-0.6,0.4-1.1,0.9-1.5,1.5c-0.1,0.2-0.2,0.3-0.3,0.5c0,0.1-0.1,0.2-0.1,0.3s-0.1,0.2-0.1,0.3c0,0,0,0.1-0.1,0.1l-0.1,0.1
				c0,0.1-0.1,0.2-0.1,0.3s-0.1,0.2-0.1,0.3v0.2c0,0.1,0,0.1,0,0.2s0,0.2-0.1,0.3c0,0.1,0,0.2,0,0.3v0.2c0,0.1,0,0.1,0,0.2
				s0,0.2,0,0.3s0,0.2,0,0.3v0.2v0.2c0,0.1,0,0.2,0,0.4c0,0.1,0,0.2,0.1,0.3c0,0.1,0,0.1,0,0.2v0.2c0,0.1,0.1,0.2,0.1,0.3
				s0.1,0.2,0.1,0.3c0,0.1,0,0.1,0.1,0.2l0.1,0.2c0.1,0.1,0.1,0.2,0.2,0.3s0.1,0.2,0.2,0.3l0.1,0.2l0.1,0.2c0.1,0.1,0.1,0.2,0.2,0.3
				c0.3,0.4,0.6,0.8,1,1.1c0.2,0.2,0.4,0.3,0.6,0.5c0.1,0.1,0.2,0.2,0.3,0.2c0.1,0.1,0.2,0.2,0.3,0.2c0.1,0.1,0.2,0.1,0.3,0.2
				c0.1,0.1,0.2,0.1,0.3,0.2l0.2,0.1l0.2,0.1c0.1,0.1,0.2,0.1,0.4,0.2c0.1,0.1,0.2,0.1,0.4,0.2l0.2,0.1l0.2,0.1
				c0.1,0,0.2,0.1,0.4,0.1c0.1,0,0.3,0.1,0.4,0.1s0.3,0.1,0.4,0.1s0.3,0.1,0.4,0.1c0.3,0.1,0.5,0.1,0.8,0.2c0.5,0.1,1.1,0.2,1.7,0.2
				c1.1,0.1,2.3,0,3.4-0.2c0.6-0.1,1.2-0.3,1.7-0.5c0.6-0.2,1.1-0.5,1.7-0.8l0.2-0.1l0.2-0.1c0.1-0.1,0.3-0.2,0.4-0.3l0.2-0.2
				c0.1-0.1,0.1-0.1,0.2-0.2c0.1-0.1,0.2-0.2,0.3-0.3c0.5-0.4,0.9-0.9,1.3-1.5c0.4-0.5,0.7-1.1,1-1.8c0.3-0.7,0.5-1.5,0.6-2.3
				c0.2-1.7-0.1-3.6-0.9-5.4c-0.2-0.5-0.4-0.9-0.7-1.3c-0.3-0.4-0.6-0.9-0.9-1.3s-0.7-0.8-1.1-1.2c-0.2-0.2-0.4-0.4-0.6-0.5
				c-0.1-0.1-0.2-0.2-0.3-0.3c-0.1-0.1-0.2-0.2-0.3-0.2c-0.1-0.1-0.2-0.2-0.3-0.2c-0.1-0.1-0.2-0.2-0.3-0.2
				c-0.2-0.1-0.5-0.3-0.7-0.4c-0.1-0.1-0.2-0.1-0.3-0.2c-0.1-0.1-0.2-0.1-0.4-0.2c-0.1-0.1-0.2-0.1-0.4-0.2
				c-0.1-0.1-0.2-0.1-0.4-0.2c-0.2-0.1-0.5-0.2-0.7-0.4c-0.3-0.1-0.5-0.2-0.8-0.3c-0.3-0.1-0.5-0.2-0.8-0.3c-0.1,0-0.3-0.1-0.4-0.1
				s-0.3-0.1-0.4-0.1s-0.3-0.1-0.4-0.1s-0.3-0.1-0.4-0.1c-0.3-0.1-0.6-0.1-0.8-0.2c-0.3,0-0.6-0.1-0.9-0.1c-0.1,0-0.3,0-0.4-0.1
				c-0.1,0-0.3,0-0.4,0c-1.2-0.1-2.3-0.2-3.5-0.1c-0.3,0-0.6,0-0.9,0h-0.4h-0.4c-0.3,0-0.6,0-0.9,0.1c-0.3,0-0.6,0.1-0.9,0.1
				s-0.6,0.1-0.9,0.1s-0.6,0.1-0.9,0.1s-0.6,0.1-0.9,0.1l-0.4,0.1c-0.1,0-0.3,0.1-0.4,0.1c-0.3,0.1-0.6,0.1-0.9,0.2
				s-0.6,0.1-0.9,0.2c-0.6,0.1-1.2,0.3-1.8,0.5c-0.3,0.1-0.6,0.2-0.9,0.3s-0.6,0.2-0.9,0.3c-0.6,0.2-1.1,0.4-1.7,0.6
				c-0.4,0.1-0.8,0.3-1.2,0.4c0,0.2-0.1,0.5-0.1,0.7C268.6,307.4,269.3,307.2,270.1,307.1z"/>
			<path class="st0" d="M233.4,293.2c2.8,4.1,8.4,7,13.7,7.8c5.3,0.8,10.7-1,15.4-3.4c5.4-2.8,10.3-6.3,15.5-9.4
				c4.9-3,10.3-5.8,16.3-6c0.7,0,1.3-0.4,1.3-0.8c0.3-0.4,0-1.1-0.5-1.4c-4.1-2.9-10-2.9-14.9-1.5c-5,1.4-7.8,5.9-10.3,9.9
				c-0.2-2.3-0.9-4.6-2.9-6.2c-0.9-0.7-3.8-1.9-1.8,1.2c2.1,3.2-0.9,7.5-3.4,10.3c-3,3.3-8,4.8-12.5,5.4c-0.1,0-0.2,0-0.3,0.1
				c-0.4,0-0.9-0.1-1.3-0.1c-8.6-1-14-7.5-15.1-14.9c-0.9-5.7,0.1-13.7,6.1-17.2c2.6-1.5,6.1-1.4,8.8-0.4c0.7,0.3,1.3,1.1,1.8,1.6
				c1.2,1.3,1.6,3.4,1.1,5.3c-2.3-1-5.6-0.4-7.9,0.6c-3.1,1.4-5.3,4.9-3.8,7.4c0.1,0.2,0.1,0.4,0.2,0.5c0.1,0.3,0.3,0.6,0.7,0.8
				c6.7,3.3,13.3-0.8,15.1-7.1c1.9-7-4.4-11.8-11.7-11.8c-6.9,0-10.8,5.8-12.2,11.2C228.9,280.9,229.8,288,233.4,293.2z
				 M241.6,277.9C241.6,277.9,241.6,278,241.6,277.9L241.6,277.9L241.6,277.9z"/>
		</g>
	</g>
	<g>
		<g>
			<path class="st0" d="M61.9,262.8c0,0,0.3-0.1,0.8-0.3c0.3-0.1,0.6-0.2,1-0.3c0.2-0.1,0.4-0.1,0.7-0.1c0.2,0,0.5-0.1,0.8-0.1
				c2.2-0.3,5.4-0.5,9.3-0.1c3.9,0.4,8.5,1.2,13.5,2.5c2.5,0.6,5.1,1.4,7.8,2.3c1.3,0.4,2.7,0.9,4,1.4c1.4,0.5,2.7,1.1,4.1,1.6
				c2.7,1.1,5.4,2.3,7.9,3.3c2.6,1,5,1.9,7.4,2.7c4.8,1.5,9.3,2.4,13.1,2.6c0.9,0,1.8,0.1,2.7,0c0.8,0,1.6-0.1,2.4-0.2
				c1.5-0.2,2.7-0.6,3.7-1s1.7-0.9,2.2-1.2c0.2-0.2,0.4-0.3,0.5-0.4s0.2-0.1,0.2-0.1s-0.1,0.1-0.2,0.2s-0.2,0.3-0.5,0.5
				c-0.4,0.4-1.1,0.9-2,1.5c-1,0.6-2.2,1.1-3.7,1.5c-0.8,0.2-1.6,0.4-2.5,0.5s-1.8,0.2-2.8,0.3c-4,0.2-8.7-0.4-13.7-1.6
				c-2.5-0.6-5.1-1.5-7.8-2.4c-2.6-1-5.3-2.1-8-3.2c-1.4-0.6-2.7-1.1-4-1.6s-2.6-1-3.9-1.5c-2.6-0.9-5.1-1.8-7.5-2.6
				c-4.8-1.5-9.3-2.7-13-3.4c-3.8-0.7-6.9-1-9-0.9c-0.3,0-0.5,0-0.8,0c-0.2,0-0.5,0-0.7,0c-0.4,0-0.8,0.1-1,0.1
				C62.2,262.7,61.9,262.8,61.9,262.8z"/>
		</g>
		<g>
			<path class="st0" d="M50,279.3c-0.2,0.3-0.5,0.5-0.9,0.5c-0.2,0-0.5,0-0.8,0s-0.6-0.1-1-0.2c-0.3-0.1-0.7-0.3-1.1-0.5
				c-0.4-0.2-0.8-0.5-1.2-0.9c-0.8-0.7-1.5-1.7-1.9-3c-0.2-0.6-0.3-1.5-0.3-2.5c0.1-1,0.4-2.1,0.9-3.1c1-2,2.7-3.6,4.4-4.7
				c0.9-0.6,1.7-1,2.6-1.4c0.8-0.4,1.6-0.6,2.3-0.7c1.3-0.3,2.2-0.3,2.2-0.1c0,0.1-0.7,0.5-1.8,1.3c-0.5,0.4-1.1,0.8-1.7,1.3
				c-0.6,0.5-1.2,1.1-1.8,1.8c-0.6,0.7-1.1,1.4-1.5,2.1c-0.4,0.7-0.7,1.4-0.9,2.1c-0.2,0.6-0.2,1.2-0.2,1.6c0.1,0.4,0.1,0.8,0.2,1
				c0.2,0.5,0.4,1,0.7,1.6c0.1,0.3,0.3,0.5,0.5,0.8s0.3,0.5,0.5,0.8c0.2,0.2,0.3,0.5,0.4,0.7c0.1,0.2,0.2,0.4,0.3,0.6
				C50.1,278.6,50.1,279,50,279.3z"/>
		</g>
		<g>
			<path class="st0" d="M35.9,263.9c0.1-0.3,0.3-0.6,0.5-0.8c0.2-0.2,0.5-0.4,0.8-0.6c0.5-0.3,1.1-0.6,1.8-0.7c0.3,0,0.9,0,1.7-0.1
				c0.7-0.1,1.6-0.2,2.4-0.5c0.2-0.1,0.4-0.1,0.6-0.2c0.2-0.1,0.4-0.1,0.6-0.2c0.4-0.2,0.7-0.3,1-0.4s0.6-0.3,0.7-0.3
				c0.2-0.1,0.3-0.1,0.4-0.1c0.1,0,0.1,0.2,0,0.4c0,0.2-0.1,0.5-0.3,0.8c-0.1,0.3-0.4,0.7-0.6,1.1c-0.1,0.2-0.3,0.4-0.4,0.6
				c-0.2,0.2-0.3,0.4-0.5,0.6c-0.7,0.8-1.7,1.6-2.6,2.1c-0.9,0.5-1.9,0.8-2.5,0.9c-1.2,0.2-2.3-0.1-3-0.7c-0.3-0.3-0.6-0.6-0.7-0.9
				C35.8,264.5,35.8,264.2,35.9,263.9z"/>
		</g>
		<path class="st0" d="M17.5,271.4c0,0.4,0.1,0.7,0.1,1.1s0.1,0.7,0.1,1.1c0.5,2.9,1.6,5.7,3.2,8c1.6,2.3,3.7,4.1,5.8,5.4
			c2.2,1.3,4.4,2.2,6.6,2.8c2.2,0.6,4.4,0.9,6.4,1.1c2,0.1,4,0.1,5.7-0.1c0.4,0,0.9-0.1,1.3-0.1c0.4-0.1,0.8-0.1,1.3-0.2
			c0.4-0.1,0.8-0.1,1.2-0.2c0.4-0.1,0.8-0.1,1.1-0.2c0.4-0.1,0.7-0.2,1.1-0.3c0.2,0,0.4-0.1,0.5-0.1c0.2-0.1,0.3-0.1,0.5-0.1
			c0.3-0.1,0.7-0.2,1-0.3c0.3-0.1,0.6-0.2,0.9-0.3c2.4-0.8,4.1-1.7,5.2-2.3c0.3-0.1,0.5-0.3,0.7-0.4c0.2-0.1,0.4-0.2,0.5-0.3
			c0.3-0.2,0.4-0.3,0.4-0.3s-0.2,0.1-0.5,0.2c-0.1,0.1-0.3,0.2-0.6,0.3c-0.2,0.1-0.5,0.3-0.8,0.4c-1.2,0.6-3,1.3-5.3,1.9
			c-0.3,0.1-0.6,0.2-0.9,0.2c-0.3,0.1-0.6,0.1-1,0.2c-0.2,0-0.3,0.1-0.5,0.1s-0.3,0.1-0.5,0.1c-0.4,0.1-0.7,0.1-1.1,0.2
			c-0.4,0.1-0.7,0.1-1.1,0.2c-0.4,0-0.8,0.1-1.2,0.1s-0.8,0.1-1.2,0.1s-0.8,0-1.3,0c-1.7,0-3.6,0-5.5-0.3c-1.9-0.3-4-0.7-6-1.4
			s-4.1-1.6-6-2.9c-1.9-1.3-3.6-3-4.9-5c-1.3-2-2.2-4.4-2.5-7c0-0.3-0.1-0.6-0.1-1c0-0.3-0.1-0.7-0.1-1c0-0.6,0-1.3,0.1-1.9
			c0-0.6,0.2-1.3,0.3-1.9c0.1-0.3,0.2-0.6,0.3-0.9c0.1-0.3,0.2-0.6,0.3-0.9c0.2-0.6,0.5-1.2,0.8-1.8c0.2-0.3,0.3-0.6,0.5-0.9
			l0.1-0.2l0.1-0.2l0.3-0.4c0.8-1.1,1.7-2.2,2.8-3.1c2.1-1.9,4.7-3.5,7.4-4.8c2.8-1.3,5.7-2.3,8.8-3c1.5-0.4,3.1-0.7,4.7-0.8
			c1.6-0.2,3.2-0.3,4.8-0.3c0.4,0,0.8,0,1.2,0s0.8,0,1.2,0s0.8,0.1,1.2,0.1c0.4,0.1,0.8,0.1,1.2,0.2c1.6,0.2,3.2,0.4,4.8,0.7
			c0.8,0.1,1.6,0.3,2.4,0.4c0.8,0.1,1.6,0.3,2.4,0.5c0.8,0.2,1.6,0.3,2.3,0.5c0.8,0.2,1.5,0.4,2.3,0.6c6.1,1.5,11.9,3.4,17.4,5.3
			s10.7,3.8,15.6,5.6c4.9,1.8,9.5,3.4,13.8,4.7c2.1,0.6,4.2,1.3,6.1,1.8c1.9,0.5,3.8,1,5.5,1.3c3.5,0.7,6.6,1,9.1,0.8
			c1.3-0.1,2.4-0.3,3.3-0.5c0.4-0.1,0.7-0.2,1-0.3c0.1,0,0.2,0,0.3-0.1c0.1,0,0.3-0.1,0.4-0.1s0.3-0.1,0.4-0.1s0.3-0.1,0.4-0.1
			c0.3-0.1,0.5-0.2,0.7-0.3c0.5-0.2,1-0.5,1.4-0.7c0.4-0.3,0.9-0.6,1.3-0.9c0.4-0.3,0.8-0.6,1.1-1c1.4-1.4,2.3-3.1,2.6-4.7
			c0.2-0.8,0.2-1.6,0.2-2.4c0-0.8-0.2-1.4-0.4-2.1c-0.2-0.6-0.4-1.2-0.7-1.8c-0.1-0.1-0.2-0.3-0.2-0.4s-0.1-0.1-0.1-0.2l-0.1-0.2
			c-0.1-0.1-0.2-0.3-0.3-0.4L149,256l-0.2-0.2c-0.4-0.5-0.9-0.9-1.3-1.3c-0.5-0.4-1-0.7-1.5-1c-1-0.6-2.1-1.1-3.2-1.4
			c-0.5-0.2-1.1-0.3-1.6-0.4c-0.3,0-0.6-0.1-0.8-0.1c-0.1,0-0.3,0-0.4,0s-0.3,0-0.4,0s-0.3,0-0.4,0s-0.3,0-0.4,0h-0.2h-0.2
			c-0.1,0-0.3,0-0.4,0s-0.3,0-0.4,0h-0.2h-0.2c-0.1,0-0.3,0-0.4,0.1c-0.1,0-0.3,0.1-0.4,0.1s-0.3,0.1-0.4,0.1s-0.2,0.1-0.4,0.1
			c-0.2,0.1-0.5,0.2-0.7,0.3c-0.5,0.2-0.9,0.5-1.3,0.7c-0.1,0.1-0.2,0.1-0.3,0.2l-0.1,0.1l-0.1,0.1c-0.1,0.1-0.2,0.2-0.3,0.2
			c-0.1,0.1-0.2,0.2-0.3,0.3l-0.1,0.1l-0.1,0.1c-0.1,0.1-0.2,0.2-0.2,0.3c-0.1,0.1-0.1,0.2-0.2,0.3l-0.1,0.1c0,0-0.1,0.1-0.1,0.2
			c-0.1,0.1-0.1,0.2-0.2,0.3c-0.1,0.1-0.1,0.2-0.2,0.3l-0.1,0.2l-0.1,0.2c0,0.1-0.1,0.2-0.1,0.3c0,0.1-0.1,0.2-0.1,0.3s0,0.1,0,0.2
			v0.2c0,0.1,0,0.2-0.1,0.3c0,0.1,0,0.2,0,0.3s0,0.1,0,0.2v0.2c0,0.1,0,0.2,0,0.3c0,0.1,0,0.2,0,0.3v0.2c0,0.1,0,0.1,0,0.2
			s0,0.2,0,0.3c0,0.1,0,0.2,0,0.3c0,0.2,0.1,0.4,0.1,0.6c0.2,0.7,0.5,1.4,1,1.9c0.4,0.5,0.9,1,1.4,1.3c0.5,0.3,1,0.5,1.4,0.6
			c0.1,0,0.1,0,0.2,0s0.1,0,0.2,0s0.2,0,0.3,0.1c0.2,0,0.4,0,0.6,0.1c0.2,0,0.3,0,0.5,0c0.1,0,0.1,0,0.2,0c1,0.3,2-0.2,2.5-1.1
			c0.5-1.1,0.1-2.3-1-2.8s-2.3-0.1-2.8,1c-0.4,0.8-0.2,1.8,0.4,2.4c-0.1,0-0.1,0-0.2,0s-0.2-0.1-0.3-0.1h-0.1c0,0-0.1,0-0.1-0.1
			c-0.4-0.1-0.8-0.4-1.2-0.7c-0.4-0.3-0.8-0.7-1.1-1.2c-0.3-0.5-0.6-1-0.7-1.7c0-0.2-0.1-0.3-0.1-0.5c0-0.1,0-0.2,0-0.2
			c0-0.1,0-0.2,0-0.2v-0.1v-0.1c0-0.1,0-0.2,0-0.3s0-0.2,0-0.3v-0.1V258c0-0.1,0-0.2,0-0.3c0-0.1,0-0.2,0.1-0.3v-0.1v-0.1
			c0-0.1,0.1-0.2,0.1-0.3s0.1-0.2,0.1-0.3l0.1-0.1l0.1-0.1c0-0.1,0.1-0.2,0.1-0.2c0.1-0.1,0.1-0.2,0.2-0.2l0.1-0.1l0.1-0.1
			c0.1-0.1,0.1-0.2,0.2-0.2c0.1-0.1,0.1-0.1,0.2-0.2l0.1-0.1l0.1-0.1c0.1-0.1,0.1-0.1,0.2-0.2c0.1-0.1,0.2-0.1,0.2-0.2l0.1-0.1
			l0.1-0.1c0.1-0.1,0.2-0.1,0.3-0.2c1.4-0.9,3.2-1.3,5.2-1.2c0.1,0,0.2,0,0.4,0c0.1,0,0.2,0,0.4,0c0.2,0,0.5,0.1,0.7,0.1
			c0.5,0.1,1,0.2,1.5,0.3c1,0.3,1.9,0.7,2.8,1.2c0.4,0.3,0.9,0.6,1.3,0.9c0.4,0.3,0.8,0.7,1.1,1.1l0.1,0.2l0.1,0.2
			c0.1,0.1,0.2,0.2,0.2,0.3l0.1,0.2c0,0.1,0.1,0.1,0.1,0.2c0.1,0.1,0.1,0.2,0.2,0.4c0.2,0.5,0.5,1,0.6,1.5c0.2,0.5,0.3,1.1,0.3,1.7
			c0,0.6,0,1.3-0.1,1.9c-0.1,0.7-0.4,1.4-0.8,2c-0.1,0.2-0.2,0.3-0.3,0.5c-0.1,0.2-0.2,0.3-0.3,0.5c-0.2,0.3-0.5,0.6-0.8,0.9
			c-0.3,0.3-0.6,0.6-0.9,0.9c-0.3,0.3-0.7,0.5-1.1,0.8c-0.4,0.2-0.8,0.4-1.2,0.6c-0.2,0.1-0.4,0.2-0.6,0.3c-0.1,0-0.2,0.1-0.3,0.1
			c-0.1,0-0.2,0.1-0.3,0.1c-0.1,0-0.2,0.1-0.3,0.1c-0.1,0-0.2,0.1-0.4,0.1c-0.2,0.1-0.5,0.1-0.7,0.2c-0.1,0-0.2,0.1-0.4,0.1
			c-0.1,0-0.3,0-0.4,0.1c-0.1,0-0.3,0-0.4,0.1c-0.1,0-0.3,0-0.4,0.1c-0.3,0-0.5,0.1-0.8,0.1s-0.5,0-0.8,0.1c-0.3,0-0.5,0-0.8,0
			c-0.1,0-0.3,0-0.4,0s-0.3,0-0.4,0s-0.3,0-0.4,0s-0.3,0-0.4,0c-0.3,0-0.5-0.1-0.8-0.1c-0.6-0.1-1.3-0.1-1.9-0.2s-1.1-0.2-1.7-0.2
			c-1-0.1-2-0.2-3-0.3c-0.4-0.1-2.3-0.3-2.3-0.3l0,0c-0.7-0.2-1.4-0.5-2.1-0.7c-1.9-0.6-3.9-1.4-5.9-2.1c-4.1-1.5-8.6-3.3-13.5-5.3
			c-4.8-2-10-4.1-15.5-6.2s-11.4-4.1-17.6-5.7c-0.8-0.2-1.6-0.4-2.4-0.6c-0.8-0.2-1.6-0.4-2.4-0.5c-0.8-0.2-1.6-0.4-2.4-0.5
			c-0.8-0.1-1.6-0.3-2.5-0.4c-1.6-0.3-3.3-0.5-5-0.7c-0.4-0.1-0.8-0.1-1.3-0.2c-0.4,0-0.9-0.1-1.3-0.1c-0.4,0-0.9,0-1.3-0.1
			c-0.4,0-0.9,0-1.3,0c-3.5,0-7,0.5-10.3,1.3c-3.3,0.8-6.5,1.9-9.5,3.4s-5.8,3.3-8.2,5.5c-1.2,1.1-2.3,2.4-3.2,3.7l-0.3,0.5
			l-0.2,0.3l-0.2,0.3c-0.2,0.4-0.4,0.7-0.6,1.1c-0.3,0.7-0.7,1.5-1,2.2c-0.1,0.4-0.3,0.7-0.4,1.1c-0.1,0.4-0.2,0.8-0.3,1.2
			c-0.1,0.8-0.3,1.6-0.3,2.3C17.5,269.9,17.5,270.7,17.5,271.4z"/>
	</g>
</g>
<path class="st0" d="M466,257.2c0,0,4,8.2,0,12.1c0,0,65.6-11.1,111.9-12.1C577.9,257.2,466,257.2,466,257.2z"/>
<path class="st0" d="M-15.1,257.2c0,0-4,8.2,0,12.1c0,0-65.6-11.1-111.9-12.1C-127,257.2-15.1,257.2-15.1,257.2z"/>
</svg>
