<?xml version="1.0" standalone="no"?>
<!DOCTYPE svg PUBLIC "-//W3C//DTD SVG 20010904//EN"
 "http://www.w3.org/TR/2001/REC-SVG-20010904/DTD/svg10.dtd">
<svg version="1.0" xmlns="http://www.w3.org/2000/svg"
 width="2774.000000pt" height="2774.000000pt" viewBox="0 0 2774.000000 2774.000000"
 preserveAspectRatio="xMidYMid meet">
<metadata>
Created by potrace 1.14, written by Peter Selinger 2001-2017
</metadata>
<g transform="translate(0.000000,2774.000000) scale(0.100000,-0.100000)"
fill="#000000" stroke="none">
<path d="M14880 27697 c-30 -24 -76 -67 -102 -95 -453 -505 -680 -2044 -639
-4329 13 -667 29 -1195 47 -1518 7 -142 33 -646 40 -795 l6 -135 -58 -80
c-194 -270 -520 -769 -742 -1137 -599 -992 -1077 -1977 -1468 -3020 -20 -53
-34 -78 -45 -78 -9 0 -43 21 -77 48 -51 40 -59 51 -55 72 7 39 -16 539 -32
695 -55 521 -195 1073 -367 1445 -66 144 -343 655 -346 639 -1 -8 16 -177 39
-374 38 -327 42 -388 46 -672 3 -187 1 -373 -6 -465 -67 -897 -352 -1888 -820
-2853 -299 -616 -656 -1184 -1084 -1722 -796 -1002 -1209 -1903 -1346 -2940
-58 -440 -53 -955 14 -1388 67 -426 197 -880 340 -1190 13 -27 35 -76 49 -108
89 -201 287 -501 479 -722 476 -548 1186 -922 1962 -1034 651 -94 1331 -4
1955 259 872 367 1656 943 2191 1608 134 167 144 176 69 62 -80 -120 -173
-244 -333 -442 -118 -147 -157 -203 -157 -228 0 -21 48 -9 160 41 102 45 235
99 244 99 9 0 14 -1451 6 -1625 -30 -596 -147 -1175 -347 -1719 -85 -232 -204
-482 -267 -561 l-23 -28 -57 32 c-43 25 -56 37 -51 50 4 9 9 79 12 156 9 217
-32 367 -138 508 -200 266 -687 412 -1107 332 -536 -103 -969 -583 -1093
-1215 -46 -234 -26 -522 51 -716 36 -90 110 -235 130 -254 3 -3 14 -18 24 -35
47 -74 208 -232 315 -309 158 -113 358 -200 561 -243 116 -24 370 -24 493 0
235 47 481 162 662 311 104 85 284 244 409 361 l129 120 -88 -110 c-98 -122
-185 -250 -185 -272 0 -12 6 -11 31 5 96 60 252 215 381 377 113 142 268 402
268 449 0 18 -2 18 -26 -5 -16 -14 -5 6 26 51 247 357 460 848 600 1383 144
553 258 1324 300 2047 22 367 12 1419 -20 2250 -5 135 -10 279 -10 320 0 42
-4 70 -9 65 -4 -6 -41 -84 -81 -175 -39 -91 -75 -168 -79 -173 -8 -8 -72 259
-73 303 -1 14 24 93 55 176 154 415 252 843 307 1334 l20 185 58 53 c31 29 98
82 149 118 93 67 107 82 97 109 -12 30 -184 95 -251 95 l-33 0 0 78 0 78 93
-24 c238 -61 551 -30 829 82 358 145 705 421 960 766 87 116 96 126 70 75 -26
-53 -45 -115 -38 -122 3 -3 61 48 128 114 103 101 133 124 183 143 70 27 207
38 255 21 48 -16 208 -133 214 -156 11 -42 107 -184 162 -238 110 -110 276
-192 444 -218 43 -6 131 -9 205 -7 116 4 141 9 232 40 118 40 218 95 337 185
90 67 261 230 365 348 59 67 61 68 45 30 -40 -97 -58 -154 -51 -161 4 -4 56 2
115 14 139 29 209 28 316 -3 113 -33 175 -65 264 -136 65 -53 137 -87 151 -73
3 3 -38 47 -91 97 -80 76 -128 136 -128 161 0 2 28 -15 63 -38 35 -23 96 -53
137 -67 66 -21 92 -24 225 -24 156 1 253 18 435 76 419 136 718 437 859 865
22 66 53 149 69 186 69 153 167 498 197 693 9 61 59 261 110 445 122 435 123
438 136 555 27 247 -53 595 -198 865 -168 313 -399 533 -733 700 -137 69 -192
105 -268 175 -204 189 -305 502 -289 895 10 222 64 542 112 656 8 20 15 40 15
44 0 10 -178 122 -197 124 -17 1 -197 -292 -315 -514 -436 -822 -550 -1520
-324 -1985 83 -169 168 -261 346 -370 452 -277 824 -713 968 -1134 32 -96 36
-117 36 -216 1 -95 -2 -117 -23 -162 -26 -58 -97 -130 -158 -161 -155 -79
-487 -67 -671 25 -99 49 -193 137 -233 218 l-32 65 -1 187 c-2 206 -11 251
-64 307 -71 75 -184 74 -255 -1 -21 -23 -38 -65 -67 -164 -57 -198 -84 -268
-166 -434 -87 -178 -177 -307 -295 -426 -139 -138 -274 -220 -458 -276 -76
-23 -104 -26 -241 -27 -128 -1 -165 2 -209 18 -222 77 -290 395 -200 934 11
68 37 185 58 260 21 75 37 138 36 139 -6 10 -308 -52 -380 -77 -381 -135 -783
-493 -1075 -958 -207 -328 -300 -448 -464 -594 -288 -256 -654 -417 -1008
-444 -456 -35 -783 304 -918 955 -14 69 -31 265 -60 694 l-39 598 24 77 c29
91 31 117 10 108 -8 -3 -21 -8 -29 -12 -10 -4 -15 8 -19 43 l-5 48 131 135
c294 302 543 629 703 920 31 58 81 148 110 200 133 238 247 621 301 1010 24
171 23 595 -1 760 -9 63 -23 169 -31 236 -56 463 -196 842 -425 1154 -34 47
-130 152 -214 233 l-151 148 29 52 c154 282 205 404 211 507 3 47 20 87 113
270 414 816 657 1908 742 3330 33 563 31 1528 -4 1768 -80 535 -312 1018 -670
1390 -203 211 -397 352 -666 485 l-165 82 -285 3 -285 3 -55 -44z m444 -167
c121 -41 349 -154 461 -228 246 -164 470 -393 625 -638 l38 -60 -92 92 c-92
92 -232 194 -267 194 -25 0 -25 -30 1 -105 11 -32 20 -59 20 -60 0 -1 -30 14
-67 32 -182 90 -364 57 -524 -95 -38 -35 -89 -92 -113 -126 -273 -383 -485
-1217 -630 -2479 -51 -439 -73 -775 -86 -1312 -5 -203 -15 -437 -21 -520 -20
-247 10 -597 77 -910 33 -155 30 -129 123 -1325 137 -1759 125 -1566 112
-1810 -6 -118 -16 -420 -22 -670 -5 -250 -13 -466 -16 -480 l-5 -25 -9 25 c-4
14 -29 135 -53 270 -25 135 -61 316 -80 403 -45 204 -120 858 -211 1837 -7 77
-32 387 -45 560 -6 80 -15 199 -20 265 -37 451 -62 962 -65 1305 -3 251 -9
426 -20 530 -37 359 -50 796 -50 1700 1 639 6 809 41 1290 89 1239 320 2111
613 2314 91 64 154 69 285 26z m595 -1000 c21 -10 51 -34 66 -51 l27 -32 -24
-13 c-13 -7 -59 -25 -103 -40 -130 -43 -228 -99 -286 -162 -54 -59 -77 -97
-65 -109 4 -4 28 1 54 11 217 86 351 68 483 -63 145 -145 163 -240 164 -856 0
-405 -7 -534 -46 -885 -127 -1140 -453 -2226 -811 -2703 l-44 -59 28 -126 c15
-70 41 -208 58 -308 56 -334 64 -427 64 -734 l1 -285 -38 -204 c-21 -112 -36
-205 -34 -207 2 -2 20 8 40 21 20 14 38 25 41 25 4 0 6 -16 6 -35 0 -79 50
-141 163 -199 82 -43 138 -48 161 -14 9 12 16 30 16 40 0 10 4 18 9 18 11 0
89 -320 101 -418 6 -42 32 -189 59 -327 150 -755 133 -1362 -46 -1667 -40 -69
-213 -252 -321 -340 -75 -61 -240 -178 -252 -178 -9 0 -12 30 -60 695 -22 303
-61 816 -85 1140 -25 325 -52 689 -60 810 -9 121 -27 355 -40 520 -14 165 -41
503 -60 750 -19 248 -51 641 -70 875 -51 623 -55 700 -62 1095 -10 619 23
1143 118 1855 79 599 187 1128 301 1480 175 541 363 774 547 680z m707 -1055
c42 -65 61 -179 74 -455 12 -248 25 -403 46 -545 18 -113 18 -214 4 -465 -79
-1352 -321 -2450 -705 -3205 -73 -144 -170 -306 -209 -352 l-23 -27 -30 22
-29 21 -17 203 c-20 235 -55 489 -97 695 l-29 145 38 57 c326 484 640 1511
775 2541 9 63 25 139 36 169 29 74 66 233 87 366 13 85 17 187 18 455 2 336 7
400 35 400 5 0 17 -11 26 -25z m-2746 -5644 c-17 -32 -39 -131 -33 -146 7 -20
33 -19 122 5 106 28 178 27 226 -5 144 -98 144 -97 -6 -253 -299 -311 -485
-560 -638 -854 -283 -545 -361 -1134 -220 -1668 53 -199 149 -370 288 -513
215 -222 444 -321 791 -343 l114 -7 -44 -39 c-25 -21 -66 -52 -92 -69 -27 -17
-48 -37 -48 -45 0 -60 248 -93 443 -59 125 22 367 115 592 228 153 76 300 199
406 340 71 95 72 94 -58 78 -48 -6 -88 -9 -89 -8 -2 1 36 32 84 69 48 36 136
110 197 164 l109 98 -44 -79 c-24 -44 -63 -111 -87 -150 -32 -52 -40 -71 -29
-73 8 -2 52 9 98 23 100 32 244 44 271 23 16 -12 12 -23 -51 -153 -334 -684
-1005 -1386 -1789 -1873 -181 -112 -189 -115 -388 -165 -428 -107 -791 -141
-1088 -102 -499 65 -806 340 -916 818 -48 205 -53 483 -13 617 11 36 49 160
85 275 60 192 105 370 122 485 12 72 89 277 251 667 287 690 635 1385 1052
2104 148 255 379 629 388 629 3 0 0 -9 -6 -19z m276 -828 c-117 -156 -197
-290 -221 -371 -10 -33 16 -38 115 -19 160 31 208 23 318 -52 58 -39 59 -41
66 -98 33 -283 68 -604 85 -783 43 -454 107 -1347 97 -1357 -2 -3 -64 -7 -138
-10 -217 -9 -374 32 -534 139 -139 93 -284 277 -340 433 -13 37 -36 123 -51
193 -25 116 -27 147 -27 352 -1 174 3 250 17 334 72 424 272 843 581 1214 69
82 85 95 32 25z m-2739 -2331 c6 -4 32 -34 58 -67 l47 -60 -6 -125 c-56 -1100
-497 -2309 -1201 -3295 -110 -154 -225 -300 -435 -555 -573 -693 -957 -1389
-1068 -1935 -86 -418 -38 -747 155 -1062 420 -685 996 -1148 1689 -1358 258
-78 518 -115 815 -115 222 0 337 9 555 45 424 71 840 213 1314 450 241 120
349 182 555 320 364 243 679 532 932 855 70 90 212 309 220 340 10 38 -34
2738 -57 3543 l-10 337 25 57 c50 113 96 148 154 119 15 -8 54 -47 86 -87 l58
-71 10 -167 c6 -91 14 -168 18 -171 4 -3 14 -53 23 -111 23 -159 64 -321 121
-479 19 -54 117 -263 126 -270 3 -3 9 -15 13 -27 4 -13 12 -23 17 -23 5 0 9
-5 9 -11 0 -6 9 -21 19 -33 11 -11 43 -48 70 -80 193 -225 438 -337 736 -337
389 0 819 162 1170 441 173 139 365 356 479 547 243 400 456 651 712 837 107
77 267 166 279 155 3 -3 -1 -34 -8 -69 -12 -62 -13 -63 -61 -82 -124 -48 -284
-166 -356 -262 -64 -85 -59 -91 90 -91 146 -1 174 -10 249 -80 39 -37 51 -55
56 -88 12 -76 37 -171 62 -235 l25 -63 -21 -67 c-58 -187 -33 -231 169 -301
47 -16 112 -39 144 -51 92 -33 94 -14 10 73 -39 39 -81 86 -93 104 l-22 32 63
-29 c178 -82 501 -81 738 2 200 70 363 177 529 347 58 58 101 97 97 86 -15
-40 -19 -105 -7 -105 7 0 67 19 134 42 116 40 127 42 232 41 61 -1 150 -8 200
-17 56 -10 93 -12 99 -6 6 6 -8 43 -38 100 l-48 91 84 -45 c249 -134 660 -163
901 -62 20 9 37 13 37 9 0 -5 -31 -44 -69 -89 -77 -91 -93 -115 -82 -132 9
-15 62 -36 140 -57 74 -19 148 -54 174 -82 17 -19 16 -24 -8 -109 -69 -239
-228 -453 -440 -592 -90 -59 -182 -100 -310 -137 -305 -88 -471 -69 -592 69
-96 109 -164 320 -197 612 -8 67 -19 131 -25 142 -22 40 -61 62 -114 62 -44 0
-53 -4 -86 -38 -20 -20 -46 -55 -59 -77 -17 -29 -22 -33 -17 -15 22 99 35 204
27 212 -12 12 -39 -2 -112 -57 -92 -71 -318 -283 -325 -306 -12 -37 9 -44 155
-47 77 -2 140 -7 140 -11 0 -16 -181 -281 -266 -390 -113 -146 -294 -330 -404
-411 -96 -71 -239 -143 -318 -159 -133 -28 -317 -4 -433 55 -119 60 -223 202
-264 359 -59 230 -34 593 70 1008 l7 27 -73 -31 c-234 -98 -342 -165 -526
-324 -233 -200 -425 -421 -648 -745 -223 -322 -480 -553 -793 -709 -204 -102
-365 -144 -562 -144 -144 -1 -265 21 -352 63 -44 21 -80 24 -200 14 l-75 -7
-6 -331 c-3 -182 -11 -385 -17 -451 -66 -729 -225 -1330 -505 -1900 -463 -946
-1210 -1678 -2260 -2216 -513 -263 -915 -389 -1400 -440 -149 -15 -515 -15
-655 0 -991 111 -1779 598 -2257 1396 -283 470 -467 1055 -538 1705 -19 174
-27 596 -14 770 45 610 194 1183 452 1740 217 469 500 908 942 1465 617 776
1145 1742 1480 2704 65 189 166 508 180 570 5 24 12 31 30 31 13 0 57 27 105
65 79 63 115 77 147 57z m10193 -74 c95 -36 115 -40 131 -29 19 11 28 4 105
-78 110 -116 191 -176 360 -262 192 -98 292 -167 410 -284 186 -183 320 -434
385 -721 28 -127 31 -334 6 -438 -16 -63 -131 -470 -178 -628 l-20 -68 -42 0
c-23 0 -47 4 -52 8 -6 4 -16 50 -23 103 -40 326 -274 734 -616 1074 -150 148
-289 261 -472 381 -166 109 -227 171 -284 287 -61 124 -81 216 -87 393 -8 218
-11 210 95 261 113 54 141 54 282 1z m-6360 -1792 c0 -16 -13 -33 -37 -52 -21
-15 -70 -57 -108 -93 -39 -37 -87 -82 -108 -100 l-37 -35 0 40 c0 38 3 41 119
132 65 51 126 101 136 112 24 26 35 25 35 -4z m-3465 -218 c87 -34 110 -40
125 -30 16 10 23 7 44 -19 14 -17 26 -35 26 -40 0 -21 212 -220 291 -272 139
-92 318 -163 499 -201 307 -62 740 -41 1175 58 344 78 386 96 640 260 61 40
115 75 120 78 16 10 18 -59 3 -71 -7 -6 -69 -52 -138 -103 -139 -103 -250
-205 -250 -231 0 -23 20 -31 139 -61 108 -27 159 -51 229 -113 l43 -38 9 -350
c12 -435 27 -1252 40 -2180 5 -390 12 -795 15 -898 l6 -188 -64 -97 c-112
-170 -238 -323 -402 -488 -308 -310 -625 -536 -1070 -765 -1209 -622 -2309
-652 -3178 -87 -346 225 -621 509 -857 883 -102 161 -131 218 -163 320 -98
312 -34 715 193 1206 197 428 448 804 910 1364 497 603 836 1154 1104 1800 37
88 74 177 83 198 13 29 21 37 42 37 15 0 65 16 111 35 112 46 144 45 275 -7z
m6819 -1727 c-6 -37 -12 -44 -60 -72 -30 -17 -88 -55 -129 -84 -41 -30 -75
-52 -75 -49 0 17 258 259 267 250 2 -2 1 -22 -3 -45z m-3101 -5617 c18 -10 51
-33 75 -52 l42 -34 0 -127 c-2 -789 -112 -1766 -276 -2441 -173 -713 -396
-1202 -751 -1645 -159 -199 -589 -613 -792 -763 -138 -103 -324 -187 -496
-224 -100 -21 -343 -16 -448 10 -223 55 -406 161 -568 329 -139 143 -235 317
-270 488 -17 83 -20 123 -16 235 3 74 8 148 12 164 46 211 70 286 135 421 59
122 135 231 233 332 197 204 414 306 682 319 243 13 521 -70 659 -197 80 -73
136 -193 136 -294 l0 -40 -25 37 c-26 38 -62 65 -73 54 -9 -10 75 -101 92
-100 13 2 15 -7 10 -55 -25 -250 -119 -493 -291 -749 -47 -70 -88 -133 -90
-139 -4 -10 24 -13 122 -13 116 0 127 -2 121 -17 -16 -42 -17 -100 -3 -135 23
-54 64 -72 151 -66 231 15 471 222 592 510 49 115 84 257 84 338 0 59 5 78 45
159 184 376 370 1004 449 1521 57 368 59 409 63 1229 l4 764 29 43 c84 120
263 189 363 138z"/>
<path d="M15075 27306 c-63 -20 -104 -45 -157 -93 -41 -39 -61 -73 -42 -73 3
0 47 25 99 55 52 31 111 63 132 71 53 23 68 35 51 45 -17 11 -35 10 -83 -5z"/>
<path d="M17993 13013 c-6 -2 -60 -59 -120 -126 -59 -67 -170 -187 -245 -267
-176 -185 -180 -203 -28 -129 181 87 267 172 350 343 67 139 80 192 43 179z"/>
<path d="M11779 12913 c-28 -85 -54 -140 -137 -278 -66 -110 -417 -638 -596
-896 l-95 -135 27 -80 c15 -44 47 -111 72 -148 39 -61 44 -76 46 -131 1 -38
10 -81 23 -109 36 -82 190 -220 216 -194 3 2 -4 35 -15 73 -18 63 -19 95 -2
69 11 -16 324 -252 430 -322 50 -35 92 -65 92 -68 0 -4 -46 -5 -102 -3 -94 4
-103 2 -106 -15 -5 -25 118 -145 179 -174 58 -28 138 -29 197 -2 74 34 202
186 202 243 0 23 -13 22 -96 -7 l-69 -24 145 147 c429 433 650 888 589 1217
-51 279 -365 596 -831 839 -69 36 -130 65 -136 65 -6 0 -20 -30 -33 -67z m247
-334 c258 -168 425 -340 484 -497 74 -193 -64 -535 -357 -888 -45 -55 -115
-132 -155 -172 l-74 -72 -84 56 c-239 161 -450 342 -551 475 -32 43 -59 80
-59 83 0 2 50 75 110 161 61 86 159 227 217 313 137 203 133 199 126 129 -3
-32 -3 -57 1 -57 3 0 47 16 97 35 151 59 189 66 341 63 75 -1 139 0 143 4 22
21 -122 183 -207 232 -60 35 -139 44 -191 23 -21 -9 -36 -13 -34 -9 67 118
100 172 107 172 4 0 43 -23 86 -51z"/>
<path d="M7150 11883 c-368 -226 -754 -561 -951 -823 -172 -230 -293 -623
-324 -1062 l-7 -88 -35 0 c-84 0 -177 100 -268 285 -35 72 -71 154 -80 184
-22 66 -31 55 -47 -56 -22 -152 29 -321 152 -505 66 -99 68 -103 54 -130 -8
-15 -14 -42 -14 -61 0 -25 -12 -51 -43 -93 -89 -120 -311 -314 -449 -392 -29
-17 -100 -45 -158 -62 -58 -18 -206 -69 -330 -113 -323 -116 -324 -118 -206
-354 74 -148 77 -156 65 -190 -19 -60 -5 -131 50 -250 28 -60 51 -116 51 -125
0 -22 -219 -240 -273 -272 -51 -30 -62 -63 -30 -88 9 -7 38 -34 64 -60 50 -49
79 -117 79 -183 0 -41 -16 -60 -71 -83 -53 -23 -99 -73 -99 -109 0 -14 9 -38
21 -54 33 -47 66 -138 78 -218 21 -132 -10 -274 -86 -397 -20 -32 -51 -83 -69
-113 -63 -102 -76 -152 -72 -276 3 -93 8 -120 32 -175 15 -36 28 -71 28 -77 1
-7 4 -13 8 -13 3 0 4 -15 2 -33 -6 -50 15 -144 47 -212 37 -79 135 -185 231
-248 189 -124 597 -298 1167 -497 384 -134 535 -204 733 -338 440 -298 758
-766 812 -1192 14 -115 4 -517 -17 -645 -51 -321 -131 -572 -271 -855 -215
-433 -524 -821 -934 -1174 -198 -170 -484 -376 -656 -472 -35 -20 -64 -37 -64
-39 0 -6 463 127 729 209 l144 45 -40 -42 c-102 -105 -133 -189 -77 -203 103
-26 372 53 799 235 382 164 720 343 1010 536 229 153 362 261 536 435 342 342
535 695 608 1115 11 66 32 174 46 239 98 474 22 983 -250 1666 -198 499 -562
1229 -1007 2020 -399 710 -640 1371 -768 2104 -65 374 -90 672 -90 1068 0 433
33 764 120 1213 27 137 51 277 55 310 13 114 120 589 161 718 9 27 14 50 13
51 -2 2 -51 -25 -109 -61z"/>
<path d="M18940 11714 c0 -13 48 -59 55 -52 3 2 -9 17 -25 33 -17 16 -30 24
-30 19z"/>
<path d="M18681 10897 c-41 -130 -146 -307 -437 -739 -222 -330 -262 -385
-268 -367 -2 8 -12 39 -22 69 -36 116 -101 217 -224 344 -106 110 -201 187
-355 288 -108 71 -372 215 -380 206 -1 -2 -13 -34 -25 -73 -29 -89 -64 -158
-152 -304 -86 -141 -333 -512 -527 -791 -133 -192 -142 -207 -136 -240 10 -51
43 -125 92 -205 38 -61 43 -76 43 -130 0 -37 8 -76 20 -102 32 -71 167 -203
208 -203 17 0 13 32 -12 113 -14 45 -14 47 2 35 10 -7 76 -58 146 -112 70 -54
189 -141 264 -193 l137 -95 -114 4 c-80 2 -115 0 -118 -9 -7 -18 111 -137 166
-166 74 -41 136 -45 202 -15 85 39 209 181 209 241 0 22 -10 21 -90 -3 -36
-11 -66 -20 -67 -20 -1 0 48 48 109 108 60 59 145 150 188 202 43 52 88 106
99 120 l21 25 -6 -46 c-4 -28 -2 -49 4 -53 6 -3 45 7 88 24 169 65 240 75 402
57 62 -7 118 -9 125 -5 9 5 4 32 -20 103 -17 53 -26 92 -20 87 121 -96 277
-211 376 -279 69 -48 131 -91 136 -96 6 -6 -28 -7 -97 -3 -68 3 -109 2 -113
-4 -9 -15 29 -72 74 -113 133 -120 258 -126 375 -18 55 51 126 154 126 183 0
23 -13 23 -85 -2 -32 -11 -61 -20 -65 -20 -4 0 52 60 125 133 317 319 528 661
589 961 71 343 -105 639 -564 948 -118 80 -292 179 -371 212 l-35 15 -23 -72z
m294 -368 c202 -137 355 -291 418 -418 30 -61 32 -73 32 -171 0 -89 -4 -118
-29 -190 -54 -163 -164 -352 -310 -536 -85 -106 -244 -274 -260 -274 -38 0
-391 268 -522 396 l-83 81 14 44 c7 24 27 81 44 127 39 105 40 132 6 132 -14
0 -25 3 -25 6 0 3 28 47 63 97 35 51 108 157 162 237 117 172 117 173 105 129
-14 -48 -13 -89 3 -89 7 0 61 18 118 39 136 52 216 64 352 55 126 -8 129 -4
69 73 -58 72 -133 138 -190 167 -59 30 -140 35 -185 11 l-28 -14 32 57 c18 31
42 73 53 94 24 43 16 46 161 -53z m-1738 -247 c237 -160 380 -302 449 -447 42
-86 44 -108 9 -99 -32 8 -32 -4 -3 -102 l21 -74 -27 -82 c-73 -222 -241 -478
-470 -715 -49 -51 -93 -93 -98 -93 -33 0 -372 256 -495 373 -106 102 -198 219
-190 245 2 9 51 83 108 163 57 80 158 224 224 321 66 97 121 176 121 175 1 -1
-3 -26 -9 -54 -6 -29 -7 -56 -3 -60 4 -4 28 0 54 10 222 83 216 82 380 81 102
0 152 3 152 10 0 44 -144 192 -226 232 -65 32 -132 36 -180 13 l-30 -16 50 94
c31 55 56 91 63 88 7 -2 52 -31 100 -63z"/>
</g>
</svg>
